<svg width="37" height="137" viewBox="0 0 37 137" fill="none" xmlns="http://www.w3.org/2000/svg">
<path d="M18.5 94.2544L17.6745 95.601L17.1792 94.9277L17.3443 94.2544H18.5Z" fill="#A19681"/>
<path d="M20.4811 95.9377L19.9859 95.601L20.316 94.8435L21.1415 95.4327L20.4811 95.9377Z" fill="#A19681"/>
<path d="M18.6651 60.3445V60.9252H18.9953V60.5885L18.6651 60.3445Z" fill="#A19681"/>
<path fill-rule="evenodd" clip-rule="evenodd" d="M30.3868 54.3604L28.2406 47.4589L28.0392 46.5237L27.5802 45.1022L24.2783 45.7756L20.316 46.2806H16.0236L11.8962 45.7756L9.3717 45.1321L7.98113 50.4166L7.27359 54.0237L6.13315 56.6176L8.59434 57.5586L10.0802 59.7469L11.0708 61.7668L12.3915 63.1135H14.7028L16.5189 65.4701L18.3349 66.1434L20.4811 65.4701L22.6274 63.1135H25.1038L26.4245 61.0935L27.5802 58.4003L29.8915 57.0536L31.1144 56.586L30.3868 54.3604ZM11.7311 59.2419L10.7406 56.5486V56.3803L10.0802 55.5387L10.7406 54.3604L11.2358 52.0037L12.8868 50.1521L14.3726 48.8055L16.5189 47.6272L18.0047 47.2905L18.3349 46.6172L18.9953 47.2905H19.9859L21.6368 48.3005L23.783 49.6471L25.7642 52.0037L26.4245 54.3604L26.9198 55.8753L26.0943 56.3803L25.7642 58.4003L24.7736 60.0835L20.4811 63.4501H18.9953L18.3349 63.9551L18.0047 63.4501H16.5189L13.8774 61.4302L11.7311 59.2419Z" fill="#CCB388"/>
<path d="M1.99057 70.52L1 78.4314V86.6796H3.8066L3.9717 77.4215L5.45755 69.005L7.60043 60.4336L7.27359 59.9152L5.22765 58.9524L4.30189 61.4302L1.99057 70.52Z" fill="#426317"/>
<path d="M10.2453 64.4601L8.75943 62.2718L7.60043 60.4336L5.45755 69.005L3.9717 77.4215L3.8066 86.6796H10.2453V80.788C10.2453 80.788 10.4178 77.4005 10.5755 75.2332C10.7383 72.9956 11.0708 69.51 11.0708 69.51L11.7149 65.0771L10.2453 64.4601Z" fill="#87A863"/>
<path d="M24.2783 45.7756L27.5802 45.1022L27.6245 44.5973L27.25 43.0823L24.4434 43.7556L24.3711 43.7623L20.8113 44.0923L16.8491 44.4289L12.8868 43.7556L9.95257 42.9246L9.3717 45.1321L11.8962 45.7756L16.0236 46.2806H20.316L24.2783 45.7756Z" fill="#E9D18E"/>
<path d="M8.75943 62.2718L10.2453 64.4601L11.7149 65.0771L13.0519 65.6384L15.5283 67.6022L16.0236 67.995L19.3255 68.5L21.8019 67.3217L23.6179 65.6384L26.4245 64.9651L27.3302 64.1186L28.4057 63.1135L29.2311 60.4202L31.8974 58.981L31.1144 56.586L29.8915 57.0536L27.5802 58.4003L26.4245 61.0935L25.1038 63.1135H22.6274L20.4811 65.4701L18.3349 66.1434L16.5189 65.4701L14.7028 63.1135H12.3915L11.0708 61.7668L10.0802 59.7469L8.59434 57.5586L6.13315 56.6176L5.91256 57.1193L5.22765 58.9524L7.27359 59.9152L7.60043 60.4336L8.75943 62.2718Z" fill="#E9D18E"/>
<path fill-rule="evenodd" clip-rule="evenodd" d="M32.6981 61.4302L35.1745 70.52L36 78.4314V86.6796H30.5519V83.1446L30.2217 78.7681L29.7264 74.5599L29.2311 70.8566L28.7359 66.985L27.3302 64.1186L28.4057 63.1135L29.2311 60.4202L31.8974 58.981L32.6981 61.4302ZM13.217 86.6796H10.2453V80.788C10.2453 80.788 10.4178 77.4005 10.5755 75.2332C10.7383 72.9956 11.0708 69.51 11.0708 69.51L11.7149 65.0771L13.0519 65.6384L15.5283 67.6022L14.3726 70.3516L13.8774 75.2332L13.217 80.788V86.6796Z" fill="#354F21"/>
<path d="M19.3255 68.5L16.0236 67.995L15.5283 67.6022L14.3726 70.3516L13.8774 75.2332L13.217 80.788V86.6796H30.5519V83.1446L30.2217 78.7681L29.7264 74.5599L29.2311 70.8566L28.7359 66.985L27.3302 64.1186L26.4245 64.9651L23.6179 65.6384L21.8019 67.3217L19.3255 68.5Z" fill="#1F3A0C"/>
<path d="M15.6934 56.5486L15.1981 57.5586L16.5189 58.7369L17.6745 59.2419H19.3255L20.8113 58.4003L21.8019 57.3903H21.4717L21.1415 56.3803L19.8208 56.212V57.2219L18.3349 58.4003L17.1792 57.5586L16.8491 55.8753L15.6934 56.5486Z" fill="#21522C"/>
<path d="M16.5189 52.0037L15.1981 53.3504L15.8585 53.5187L16.5189 53.0137L17.6745 53.3504L18.3349 53.8554L18.9953 53.3504H20.8113H21.8019L20.8113 52.3404L19.8208 51.4988H18.0047L16.5189 52.0037Z" fill="#21522C"/>
<path d="M26.0943 56.3803L26.9198 55.8753L26.4245 54.3604H25.7642V53.5187L25.1038 52.8454H23.783L23.2877 53.5187H22.9575L23.4528 54.3604L23.6179 55.0337L23.2877 55.202L22.7925 55.8753V56.8432L23.2877 57.2219C23.2877 57.2219 24.1802 57.6905 24.6085 57.3903L25.0419 56.5066L25.1038 56.3803H26.0943Z" fill="#C3B574"/>
<path fill-rule="evenodd" clip-rule="evenodd" d="M21.8019 57.3903L20.8113 58.4003L19.3255 59.2419H17.6745L16.5189 58.7369L15.1981 57.5586L14.8886 57.1799L14.3726 56.5486L14.1958 56.6989L13.3821 57.3903H12.0613L12.7217 59.0736L13.8774 60.4202L16.0236 61.7668H21.1415L23.2877 60.4202L24.6085 58.5686L25.0295 56.5654C24.9916 56.7329 24.8638 57.2113 24.6085 57.3903C24.1802 57.6905 23.2877 57.2219 23.2877 57.2219L22.7925 56.8432L22.6274 56.717L22.1321 57.2219L21.8019 57.3903ZM18.6651 60.3445V60.9252H18.9953V60.5885L18.6651 60.3445Z" fill="#FDFFFF"/>
<path fill-rule="evenodd" clip-rule="evenodd" d="M25.7642 54.3604H26.4245L25.7642 52.0037L23.783 49.6471L21.6368 48.3005L19.9859 47.2905H18.9953L18.3349 46.6172L18.0047 47.2905L16.5189 47.6272L14.3726 48.8055L12.8868 50.1521L11.2358 52.0037L10.7406 54.3604L10.0802 55.5387L10.7406 56.3803L12.0613 56.212V57.3903H13.3821L14.1958 56.6989L14.3726 56.5486L14.8886 57.1799L15.1981 57.5586L15.6934 56.5486L16.8491 55.8753L17.1792 57.5586L18.3349 58.4003L19.8208 57.2219V56.212L21.1415 56.3803L21.4717 57.3903H21.8019L22.1321 57.2219L22.6274 56.717L22.7925 56.8432V55.8753L23.2877 55.202L23.6179 55.0337L23.4528 54.3604L22.9575 53.5187H22.2972L21.8019 53.3504H20.8113H18.9953L18.3349 53.8554L17.6745 53.3504L16.5189 53.0137L15.8585 53.5187L15.1981 53.3504L15.033 53.4813L13.7123 53.182L13.217 52.8454L11.7495 53.1446L11.7311 53.1484L12.0613 52.4456L13.217 50.8254L15.1981 49.4788L18.3349 48.8055L20.6462 49.1422L22.9575 50.1521L24.2783 51.4988L25.1038 52.8454L25.7642 53.5187V54.3604ZM25.0419 56.5066C25.0419 56.5066 25.0414 56.5091 25.0405 56.5139C25.0397 56.5175 25.0387 56.5225 25.0375 56.5288C25.0355 56.5383 25.0328 56.5506 25.0295 56.5654L25.0375 56.5288L25.0405 56.5139L25.0419 56.5066Z" fill="#C3B574"/>
<path d="M15.1981 53.3504L16.5189 52.0037L18.0047 51.4988H19.8208L20.8113 52.3404L21.8019 53.3504L22.2972 53.5187H22.9575H23.2877L23.783 52.8454H25.1038L24.2783 51.4988L22.9575 50.1521L20.6462 49.1422L18.3349 48.8055L15.1981 49.4788L13.217 50.8254L12.0613 52.4456L11.7311 53.1484L11.7495 53.1446L13.217 52.8454L13.7123 53.182L15.033 53.4813L15.1981 53.3504Z" fill="#FDFFFF"/>
<path d="M1 86.6796V90.2145H5.12736L6.44811 89.7095L8.26415 89.0362L11.0708 88.3628L14.2075 87.8579L16.684 87.5212H21.967L24.4434 87.8579L27.25 88.3628L29.8915 89.0362L31.8726 90.2145H36V86.6796H30.5519H13.217H10.2453H3.8066H1Z" fill="#526A2F"/>
<path d="M1 90.2145V92.7394H5.95283L8.26415 91.7294L11.0708 91.0561L14.2075 90.5511L20.4811 90.2145L23.783 90.5511L27.25 91.0561L29.8915 92.0661L31.3774 92.9077L36 92.7394V90.2145H31.8726L29.8915 89.0362L27.25 88.3628L24.4434 87.8579L21.967 87.5212H16.684L14.2075 87.8579L11.0708 88.3628L8.26415 89.0362L6.44811 89.7095L5.12736 90.2145H1Z" fill="#BEB677"/>
<path fill-rule="evenodd" clip-rule="evenodd" d="M24.4434 103.007H24.7736V104.017L26.7547 103.849V103.176L26.4245 101.829H26.7547L27.7453 103.681H31.0472L31.8726 102.671H32.533L33.1934 103.512H34.0189L34.6792 102.671V101.829L34.0189 101.998V102.671H33.5236L33.1934 101.156H34.5142V98.9676L33.8538 98.2943H27.4151L27.25 99.1359L26.9198 99.6409L26.7547 98.2943H24.7736L24.6085 100.483H23.6179L23.1226 99.4726L22.1321 99.9776L21.967 101.829L23.2877 103.007L24.4434 101.998V103.007ZM29.7264 101.661L30.2217 102.671L31.0472 101.998V100.483L30.8821 99.4726L30.2217 99.3043L29.8915 100.146L29.7264 101.661Z" fill="#ECECEC"/>
<path d="M7.10849 94.086L6.44811 94.9277L5.62264 94.086H3.9717L2.81604 95.2643L2.48585 97.9576V103.007L3.31132 105.196L5.15254 106L4.79717 109.741L5.74576 108.373L7.22881 110.153L9.00847 108.373L9.91509 109.741L10.4104 109.236V109.741H12.3915V108.394L12.7217 109.741H13.3821L13.7123 108.057V109.741H16.3538V107.216H17.0142V109.909H19.9859V109.572H20.316V109.909H22.7925L22.6274 108.226H23.2877V110.077H24.4434L24.6085 109.404L25.2689 109.909H26.4245L26.9198 109.404V109.067L26.4245 108.562L26.0943 109.236H25.434V107.552L25.7642 106.879L26.0943 107.384L26.9198 107.721V106.206H25.434L24.7736 106.879L24.4434 107.047V106.206H21.4717L21.3066 107.047H20.6462L20.1509 106.374H18.9953L18.3349 107.216L18.1698 106.374H15.3632L14.0425 106.206L13.217 107.889L12.5566 106.374H8.59434V104.859L5.15254 106L7.22881 103.331L5.95283 100.483L9.41981 100.819L8.26415 102.334L10.5755 103.849L11.7311 102.839L12.0613 102.671L13.3821 103.681H15.033L16.0236 102.839V102.334H15.3632L14.7028 103.007L13.7123 102.839L13.5472 101.493L16.1887 101.324L16.3538 100.483H17.0142L17.3443 99.3043L17.6745 99.4726V103.007H17.1792V103.849H19.4906V103.007H18.9953V99.6409H19.4906L19.9859 100.819H20.4811L20.6462 102.503L21.8019 103.681L23.6179 103.849L24.4434 103.007V101.998L23.2877 103.007L21.967 101.829L22.1321 99.9776L23.1226 99.4726L23.6179 100.483H24.6085L24.7736 98.2943L21.8019 98.4626L20.9764 99.6409L20.4811 98.4626H16.3538L16.1887 99.4726L15.033 98.4626L13.0519 98.6309L11.8962 99.6409L11.0708 98.4626H8.09906L7.43868 98.6309L6.7783 98.2943L5.95283 97.9576L4.79717 99.3043L4.46698 100.819L4.79717 102.503L5.45755 103.681H4.79717L4.30189 104.354L3.64151 103.176L3.47642 101.324V97.621L3.9717 95.2643L4.96226 95.096L5.62264 95.9377L5.95283 97.9576L6.7783 98.2943L7.10849 96.2743L7.43868 94.7594L7.10849 94.086Z" fill="#F9F8F4"/>
<path d="M26.9198 109.404L27.0849 109.909H28.2406V109.404L28.4057 108.899L28.9009 109.909H31.0472L31.5425 109.236H31.8726L32.3679 109.741H33.1934L33.5236 109.067V108.394H33.0283V108.899H32.533V108.057H33.5236V106.711L33.0283 106.037L31.8726 106.374L31.5425 106.711L30.8821 106.037H29.8915L28.5708 106.206V107.047H28.0755V106.206H26.9198V107.721L26.0943 107.384L25.7642 106.879L25.434 107.552V109.236H26.0943L26.4245 108.562L26.9198 109.067V109.404Z" fill="#ECECEC"/>
<path fill-rule="evenodd" clip-rule="evenodd" d="M1 92.7394V107.047H1.33019L2.48585 107.216L2.81604 108.899V110.919L3.9717 111.256L5.12736 112.602L5.95283 114.286H6.44811L7.43868 114.622V113.949L8.59434 114.286H9.91509L11.0708 115.127H12.3915L12.7217 114.286H14.2075V115.127H15.5283L15.8585 114.286H17.0142L17.6745 115.127L19.1604 114.286L19.4906 115.127H19.9859L21.4717 114.286L21.967 115.127H23.1226L23.4528 114.622H25.1038V115.127L26.5896 115.464L27.5802 114.286L28.9009 114.622L29.8915 113.949L30.5519 114.286H31.8726L32.2028 112.602L33.1934 111.256L34.5142 110.751L34.8443 108.394L35.3396 107.047H36V92.7394L31.3774 92.9077L29.8915 92.0661L27.25 91.0561L23.783 90.5511L20.4811 90.2145L14.2075 90.5511L11.0708 91.0561L8.26415 91.7294L5.95283 92.7394H1ZM6.44811 94.9277L7.10849 94.086L7.43868 94.7594L7.10849 96.2743L6.7783 98.2943L7.43868 98.6309L8.09906 98.4626H11.0708L11.8962 99.6409L13.0519 98.6309L15.033 98.4626L16.1887 99.4726L16.3538 98.4626H20.4811L20.9764 99.6409L21.8019 98.4626L24.7736 98.2943H26.7547L26.9198 99.6409L27.25 99.1359L27.4151 98.2943H33.8538L34.5142 98.9676V101.156H33.1934L33.5236 102.671H34.0189V101.998L34.6792 101.829V102.671L34.0189 103.512H33.1934L32.533 102.671H31.8726L31.0472 103.681H27.7453L26.7547 101.829H26.4245L26.7547 103.176V103.849L24.7736 104.017V103.007H24.4434L23.6179 103.849L21.8019 103.681L20.6462 102.503L20.4811 100.819H19.9859L19.4906 99.6409H18.9953V103.007H19.4906V103.849H17.1792V103.007H17.6745V99.4726L17.3443 99.3043L17.0142 100.483H16.3538L16.1887 101.324L13.5472 101.493L13.7123 102.839L14.7028 103.007L15.3632 102.334H16.0236V102.839L15.033 103.681H13.3821L12.0613 102.671L11.7311 102.839L10.5755 103.849L8.26415 102.334L9.41981 100.819L5.95283 100.483L7.22881 103.331L5.15254 106L8.59434 104.859V106.374H12.5566L13.217 107.889L14.0425 106.206L15.3632 106.374H18.1698L18.3349 107.216L18.9953 106.374H20.1509L20.6462 107.047H21.3066L21.4717 106.206H24.4434V107.047L24.7736 106.879L25.434 106.206H26.9198H28.0755V107.047H28.5708V106.206L29.8915 106.037H30.8821L31.5425 106.711L31.8726 106.374L33.0283 106.037L33.5236 106.711V108.057H32.533V108.899H33.0283V108.394H33.5236V109.067L33.1934 109.741H32.3679L31.8726 109.236H31.5425L31.0472 109.909H28.9009L28.4057 108.899L28.2406 109.404V109.909H27.0849L26.9198 109.404L26.4245 109.909H25.2689L24.6085 109.404L24.4434 110.077H23.2877V108.226H22.6274L22.7925 109.909H20.316V109.572H19.9859V109.909H17.0142V107.216H16.3538V109.741H13.7123V108.057L13.3821 109.741H12.7217L12.3915 108.394V109.741H10.4104V109.236L9.91509 109.741L9.00847 108.373L7.22881 110.153L5.74576 108.373L4.79717 109.741L5.15254 106L3.31132 105.196L2.48585 103.007V97.9576L2.81604 95.2643L3.9717 94.086H5.62264L6.44811 94.9277ZM18.5 94.2544L17.6745 95.601L17.1792 94.9277L17.3443 94.2544H18.5ZM20.4811 95.9377L19.9859 95.601L20.316 94.8435L21.1415 95.4327L20.4811 95.9377Z" fill="#9B8458"/>
<path d="M1 107.047V114.791L1.99057 115.127L2.65094 116.81L3.31132 117.315L4.79717 116.81L5.95283 117.315L6.44811 117.82H8.59434L9.08962 118.494L9.41981 117.82H9.91509L10.4104 118.494L11.566 118.83V118.157L13.0519 118.494L14.7028 118.157L15.033 118.83H16.684L17.3443 118.157L18.3349 120.177L19.9859 118.83H22.2972L22.7925 118.157L23.783 118.83L25.434 118.157L25.7642 118.83L26.5896 118.494L27.25 117.82H27.9104V118.494H28.5708L28.7359 117.652H29.8915L30.8821 118.157L31.5425 117.315L32.8632 116.81L33.6887 117.315H34.5142L35.3396 115.801L36 115.464V107.047H35.3396L34.8443 108.394L34.5142 110.751L33.1934 111.256L32.2028 112.602L31.8726 114.286H30.5519L29.8915 113.949L28.9009 114.622L27.5802 114.286L26.5896 115.464L25.1038 115.127V114.622H23.4528L23.1226 115.127H21.967L21.4717 114.286L19.9859 115.127H19.4906L19.1604 114.286L17.6745 115.127L17.0142 114.286H15.8585L15.5283 115.127H14.2075V114.286H12.7217L12.3915 115.127H11.0708L9.91509 114.286H8.59434L7.43868 113.949V114.622L6.44811 114.286H5.95283L5.12736 112.602L3.9717 111.256L2.81604 110.919V108.899L2.48585 107.216L1.33019 107.047H1Z" fill="#E7E3C6"/>
<path d="M1 114.791V118.157L5.95283 118.83L8.26415 120.177L11.0708 121.019L14.2075 121.524L17.6745 121.86H20.9764L24.4434 121.524L27.25 121.019L29.2311 120.177L31.5425 118.83L34.184 118.494L36 118.157V115.464L35.3396 115.801L34.5142 117.315H33.6887L32.8632 116.81L31.5425 117.315L30.8821 118.157L29.8915 117.652H28.7359L28.5708 118.494H27.9104V117.82H27.25L26.5896 118.494L25.7642 118.83L25.434 118.157L23.783 118.83L22.7925 118.157L22.2972 118.83H19.9859L18.3349 120.177L17.3443 118.157L16.684 118.83H15.033L14.7028 118.157L13.0519 118.494L11.566 118.157V118.83L10.4104 118.494L9.91509 117.82H9.41981L9.08962 118.494L8.59434 117.82H6.44811L5.95283 117.315L4.79717 116.81L3.31132 117.315L2.65094 116.81L1.99057 115.127L1 114.791Z" fill="#9B8458"/>
<path fill-rule="evenodd" clip-rule="evenodd" d="M1 118.157V120.682V123.712L6.7783 124.554L12.2264 124.89H24.2783L27.0849 124.661L28.4057 124.554L33.1934 124.049L36 123.712V120.682V118.157L34.184 118.494L31.5425 118.83L29.2311 120.177L27.25 121.019L24.4434 121.524L20.9764 121.86H17.6745L14.2075 121.524L11.0708 121.019L8.26415 120.177L5.95283 118.83L1 118.157ZM5.22765 58.9524L5.12736 58.9052L5.91256 57.1193L5.22765 58.9524ZM7.98113 50.4166L7.27359 54.0237L6.13315 56.6176L5.91256 57.1193L6.9434 54.3604L7.98113 50.4166ZM7.98113 50.4166L8.09906 49.8155L9.25472 45.1022L9.3717 45.1321L7.98113 50.4166ZM31.1144 56.586L30.3868 54.3604L28.2406 47.4589L28.0392 46.5237L32.0377 58.9052L31.8974 58.981L31.1144 56.586ZM27.6245 44.5973L28.0392 46.5237L27.5802 45.1022L27.6245 44.5973ZM27.6245 44.5973L27.25 43.0823L24.4434 43.7556L24.3711 43.7623L20.8113 44.0923L16.8491 44.4289L12.8868 43.7556L9.95257 42.9246L10.5755 40.5574L11.7311 32.9825L12.7217 23.7244V16.318L10.5755 11.7731L11.7311 5.54489V1.84165L13.3821 1H22.9575L24.4434 1.84165V4.87157L25.1038 5.54489V11.0998L24.4434 13.6247V23.7244L25.1038 32.9825L26.7547 40.5574L27.6245 44.5973ZM11.7311 59.2419L10.7406 56.5486V56.3803L12.0613 56.212V57.3903L12.7217 59.0736L13.8774 60.4202L16.0236 61.7668H21.1415L23.2877 60.4202L24.6085 58.5686L25.0295 56.5654C25.0328 56.5506 25.0355 56.5383 25.0375 56.5288L25.0295 56.5654C24.9916 56.7329 24.8638 57.2113 24.6085 57.3903L25.0419 56.5066L25.1038 56.3803H26.0943L25.7642 58.4003L24.7736 60.0835L20.4811 63.4501H18.9953L18.3349 63.9551L18.0047 63.4501H16.5189L13.8774 61.4302L11.7311 59.2419ZM18.6651 60.9252V60.3445L18.9953 60.5885V60.9252H18.6651ZM4.79717 99.3043L5.95283 97.9576L5.62264 95.9377L4.96226 95.096L3.9717 95.2643L3.47642 97.621V101.324L3.64151 103.176L4.30189 104.354L4.79717 103.681H5.45755L4.79717 102.503L4.46698 100.819L4.79717 99.3043ZM29.7264 101.661L30.2217 102.671L31.0472 101.998V100.483L30.8821 99.4726L30.2217 99.3043L29.8915 100.146L29.7264 101.661ZM17.1792 94.9277L17.3443 94.2544H18.5L17.6745 95.601L17.1792 94.9277ZM20.4811 95.9377L19.9859 95.601L20.316 94.8435L21.1415 95.4327L20.4811 95.9377Z" fill="#9B8458"/>
<path d="M35.1745 132.297L36 129.267V128.425V123.712L33.1934 124.049L28.4057 124.554L27.0849 124.661L24.2783 124.89H12.2264L6.7783 124.554L1 123.712V130.445L1.99057 132.297L3.47642 134.485L7.43868 135.327L12.7217 136H25.434L29.7264 135.327L32.6981 134.485L35.1745 132.297Z" fill="#65884C"/>
<path d="M36 128.425L31.2123 129.099L28.2406 128.425L23.783 126.742H13.8774L9.58491 127.92L6.28302 129.94L1.66038 129.099H1V130.445L3.47642 134.485L12.7217 136H25.434L29.7264 135.327L32.6981 134.485L35.1745 132.297L36 129.267V128.425Z" fill="#1F3A0C"/>
<path d="M36 129.267L35.1745 132.297L32.6981 134.485L29.7264 135.327L25.434 136H12.7217M36 129.267V123.712M36 129.267V128.425M12.7217 136L7.43868 135.327L3.47642 134.485M12.7217 136L3.47642 134.485M3.47642 134.485L1.99057 132.297L1 130.445M3.47642 134.485L1 130.445M1 130.445V123.712M1 130.445V129.099M1 123.712L6.7783 124.554L12.2264 124.89H24.2783L27.0849 124.661M1 123.712V120.682M33.1934 124.049L28.4057 124.554L27.0849 124.661M33.1934 124.049L36 123.712M33.1934 124.049L27.0849 124.661M36 123.712V120.682M36 123.712V128.425M36 86.6796V78.4314L35.1745 70.52L32.6981 61.4302L31.8974 58.981M36 86.6796V120.682M36 86.6796H30.5519M36 86.6796V90.2145M1 86.6796V78.4314L1.99057 70.52L4.30189 61.4302L5.22765 58.9524M1 86.6796V120.682M1 86.6796H3.8066M1 86.6796H13.217M1 86.6796V90.2145M1 120.682L5.95283 121.355L8.59434 122.87L12.7217 123.712L17.1792 124.217H19.8208L23.2877 124.049L26.7547 123.375M1 120.682V90.2145M1 120.682V92.7394M1 120.682V107.047M1 120.682V114.791M1 120.682V118.157M26.7547 123.375L29.8915 122.365L29.9288 122.345M26.7547 123.375L29.9288 122.345M36 120.682L34.184 121.187L31.7075 121.355L29.9288 122.345M36 120.682V90.2145M36 120.682V92.7394M36 120.682V107.047M36 120.682V115.464M36 120.682V118.157M1 118.157L5.95283 118.83L8.26415 120.177L11.0708 121.019L14.2075 121.524L17.6745 121.86H20.9764L24.4434 121.524L27.25 121.019L29.2311 120.177L31.5425 118.83L34.184 118.494M1 118.157V114.791M34.184 118.494L36 118.157M34.184 118.494L35.8349 118.157H36M36 118.157V115.464M1 114.791L1.99057 115.127L2.65094 116.81L3.31132 117.315L4.79717 116.81L5.95283 117.315L6.44811 117.82H8.59434L9.08962 118.494L9.41981 117.82H9.91509L10.4104 118.494L11.566 118.83V118.157L13.0519 118.494L14.7028 118.157L15.033 118.83H16.684L17.3443 118.157L18.3349 120.177L19.9859 118.83H22.2972L22.7925 118.157L23.783 118.83L25.434 118.157L25.7642 118.83L26.5896 118.494L27.25 117.82H27.9104V118.494H28.5708L28.7359 117.652H29.8915L30.8821 118.157L31.5425 117.315L32.8632 116.81L33.6887 117.315H34.5142L35.3396 115.801L36 115.464M1 114.791V107.047M36 115.464V107.047M36 107.047H35.3396L34.8443 108.394L34.5142 110.751L33.1934 111.256L32.2028 112.602L31.8726 114.286H30.5519L29.8915 113.949L28.9009 114.622L27.5802 114.286L26.5896 115.464L25.1038 115.127V114.622H23.4528L23.1226 115.127H21.967L21.4717 114.286L19.9859 115.127H19.4906L19.1604 114.286L17.6745 115.127L17.0142 114.286H15.8585L15.5283 115.127H14.2075V114.286H12.7217L12.3915 115.127H11.0708L9.91509 114.286H8.59434L7.43868 113.949V114.622L6.44811 114.286H5.95283L5.12736 112.602L3.9717 111.256L2.81604 110.919V108.899L2.48585 107.216L1.33019 107.047H1M36 107.047V92.7394M1 107.047V92.7394M1 92.7394H5.95283L8.26415 91.7294L11.0708 91.0561L14.2075 90.5511L20.4811 90.2145L23.783 90.5511L27.25 91.0561L29.8915 92.0661L31.3774 92.9077L36 92.7394M1 92.7394V90.2145M36 92.7394V90.2145M36 90.2145H31.8726L29.8915 89.0362L27.25 88.3628L24.4434 87.8579L21.967 87.5212H16.684L14.2075 87.8579L11.0708 88.3628L8.26415 89.0362L6.44811 89.7095L5.12736 90.2145H1M5.15254 106L3.31132 105.196L2.48585 103.007V97.9576L2.81604 95.2643L3.9717 94.086H5.62264L6.44811 94.9277L7.10849 94.086L7.43868 94.7594L7.10849 96.2743L6.7783 98.2943M5.15254 106L8.59434 104.859V106.374H12.5566L13.217 107.889L14.0425 106.206L15.3632 106.374H18.1698L18.3349 107.216L18.9953 106.374H20.1509L20.6462 107.047H21.3066L21.4717 106.206H24.4434V107.047L24.7736 106.879L25.434 106.206H26.9198M5.15254 106L4.79717 109.741L5.74576 108.373L7.22881 110.153L9.00847 108.373L9.91509 109.741L10.4104 109.236V109.741H12.3915V108.394L12.7217 109.741H13.3821L13.7123 108.057V109.741H16.3538V107.216H17.0142V109.909H19.9859V109.572H20.316V109.909H22.7925L22.6274 108.226H23.2877V110.077H24.4434L24.6085 109.404L25.2689 109.909H26.4245L26.9198 109.404M5.15254 106L7.22881 103.331L5.95283 100.483L9.41981 100.819L8.26415 102.334L10.5755 103.849L11.7311 102.839L12.0613 102.671L13.3821 103.681H15.033L16.0236 102.839V102.334H15.3632L14.7028 103.007L13.7123 102.839L13.5472 101.493L16.1887 101.324L16.3538 100.483H17.0142L17.3443 99.3043L17.6745 99.4726V103.007H17.1792V103.849H19.4906V103.007H18.9953V99.6409H19.4906L19.9859 100.819H20.4811L20.6462 102.503L21.8019 103.681L23.6179 103.849L24.4434 103.007M26.9198 109.404L27.0849 109.909H28.2406V109.404L28.4057 108.899L28.9009 109.909H31.0472L31.5425 109.236H31.8726L32.3679 109.741H33.1934L33.5236 109.067V108.394H33.0283V108.899H32.533V108.057H33.5236V106.711L33.0283 106.037L31.8726 106.374L31.5425 106.711L30.8821 106.037H29.8915L28.5708 106.206V107.047H28.0755V106.206H26.9198M26.9198 109.404V109.067L26.4245 108.562L26.0943 109.236H25.434V107.552L25.7642 106.879L26.0943 107.384L26.9198 107.721V106.206M24.4434 103.007H24.7736V104.017L26.7547 103.849V103.176L26.4245 101.829H26.7547L27.7453 103.681H31.0472L31.8726 102.671H32.533L33.1934 103.512H34.0189L34.6792 102.671V101.829L34.0189 101.998V102.671H33.5236L33.1934 101.156H34.5142V98.9676L33.8538 98.2943H27.4151L27.25 99.1359L26.9198 99.6409L26.7547 98.2943H24.7736M24.4434 103.007V101.998L23.2877 103.007L21.967 101.829L22.1321 99.9776L23.1226 99.4726L23.6179 100.483H24.6085L24.7736 98.2943M24.7736 98.2943L21.8019 98.4626L20.9764 99.6409L20.4811 98.4626H16.3538L16.1887 99.4726L15.033 98.4626L13.0519 98.6309L11.8962 99.6409L11.0708 98.4626H8.09906L7.43868 98.6309L6.7783 98.2943M6.7783 98.2943L5.95283 97.9576M5.95283 97.9576L5.62264 95.9377L4.96226 95.096L3.9717 95.2643L3.47642 97.621V101.324L3.64151 103.176L4.30189 104.354L4.79717 103.681H5.45755L4.79717 102.503L4.46698 100.819L4.79717 99.3043L5.95283 97.9576ZM16.0236 95.9377L16.684 94.086M17.0142 95.9377L17.6745 95.601M17.6745 95.601L18.5 94.2544H17.3443L17.1792 94.9277L17.6745 95.601ZM18.9953 94.086H19.6557L19.4906 95.2643M19.4906 95.2643L18.8302 95.096M19.4906 95.2643L18.5 96.2743M21.4717 94.086H20.6462L20.316 94.8435M20.316 94.8435L19.9859 95.601L20.4811 95.9377L21.1415 95.4327L20.316 94.8435ZM27.5802 45.1022L24.2783 45.7756L20.316 46.2806H16.0236L11.8962 45.7756L9.3717 45.1321M27.5802 45.1022L28.0392 46.5237M27.5802 45.1022L27.6245 44.5973M15.5283 11.9414V4.53491M22.2972 13.288V10.5948L21.6368 4.53491M21.1415 15.9813L22.2972 14.298M17.0142 14.803L15.5283 13.288M17.0142 11.0998L17.5094 8.40648L17.0142 4.53491M19.4906 6.38653V2.85162M19.4906 12.6147L18.3349 10.0898M12.7217 11.0998L13.7123 7.05985L14.2075 4.53491V2.85162M5.95283 56.5486L6.13315 56.6176M31.2123 56.5486L31.1144 56.586M26.0943 56.3803L25.7642 58.4003L24.7736 60.0835L20.4811 63.4501H18.9953L18.3349 63.9551L18.0047 63.4501H16.5189L13.8774 61.4302L11.7311 59.2419L10.7406 56.5486V56.3803M26.0943 56.3803L26.9198 55.8753L26.4245 54.3604M26.0943 56.3803H25.1038L25.0419 56.5066M26.4245 54.3604L25.7642 52.0037L23.783 49.6471L21.6368 48.3005L19.9859 47.2905H18.9953L18.3349 46.6172L18.0047 47.2905L16.5189 47.6272L14.3726 48.8055L12.8868 50.1521L11.2358 52.0037L10.7406 54.3604L10.0802 55.5387L10.7406 56.3803M26.4245 54.3604H25.7642V53.5187L25.1038 52.8454M10.7406 56.3803L12.0613 56.212V57.3903M10.7406 56.3803V56.717M15.1981 57.5586L15.6934 56.5486L16.8491 55.8753L17.1792 57.5586L18.3349 58.4003L19.8208 57.2219V56.212L21.1415 56.3803M15.1981 57.5586L16.5189 58.7369L17.6745 59.2419H19.3255L20.8113 58.4003L21.8019 57.3903M15.1981 57.5586L14.8886 57.1799M21.1415 56.3803L21.4717 57.3903H21.8019M21.1415 56.3803L21.3066 55.5387L21.6368 54.5287L20.8113 53.3504M21.8019 57.3903L22.1321 57.2219L22.6274 56.717L22.7925 56.8432M15.1981 53.3504L16.5189 52.0037L18.0047 51.4988H19.8208L20.8113 52.3404L21.8019 53.3504M15.1981 53.3504L15.8585 53.5187M15.1981 53.3504L15.033 53.4813M21.8019 53.3504H20.8113M21.8019 53.3504L22.2972 53.5187H22.9575M21.8019 53.3504L22.4623 53.5187M20.8113 53.3504H18.9953L18.3349 53.8554L17.6745 53.3504L16.5189 53.0137L15.8585 53.5187M15.8585 53.5187L15.3632 54.8653L15.5283 55.707L15.8585 56.3803M14.8679 57.3903L14.3726 56.5486M14.3726 56.5486L14.8886 57.1799M14.3726 56.5486L14.1958 56.6989M12.0613 57.3903H13.3821L14.1958 56.6989M12.0613 57.3903L12.7217 59.0736L13.8774 60.4202L16.0236 61.7668H21.1415L23.2877 60.4202L24.6085 58.5686L25.0295 56.5654M10.9057 54.0237H11.7311L11.566 53.182L11.7311 53.1484M15.1981 53.5187L15.033 53.4813M22.1321 53.5187H23.2877M23.2877 53.5187L23.783 52.8454H25.1038M23.2877 53.5187H22.9575M25.1038 52.8454L24.2783 51.4988L22.9575 50.1521L20.6462 49.1422L18.3349 48.8055L15.1981 49.4788L13.217 50.8254L12.0613 52.4456M23.2877 57.2219C23.2877 57.2219 24.1802 57.6905 24.6085 57.3903M23.2877 57.2219L22.7925 56.8432M23.2877 57.2219L24.6085 57.3903M24.6085 57.3903L25.0419 56.5066M24.6085 57.3903C24.8638 57.2113 24.9916 56.7329 25.0295 56.5654M11.8962 52.6771L12.0613 52.4456M25.1038 56.212L25.0419 56.5066M11.7311 53.182L11.7495 53.1446M12.0613 52.5087L11.7495 53.1446M14.0425 56.3803L13.3821 54.8653L14.2075 53.3504M13.8774 56.212L14.1958 56.6989M14.2075 56.717L14.1958 56.6989M15.1981 57.3903L14.8886 57.1799M14.7028 57.0536L14.8886 57.1799M22.7925 56.8853V56.8432M22.9575 53.5187L23.4528 54.3604L23.6179 55.0337L23.2877 55.202L22.7925 55.8753V56.8432M22.2972 57.2219L21.967 57.3903M13.7123 58.7369L14.2075 58.2319L14.7028 58.8476L14.0425 59.4102M14.5377 59.7469L15.1981 59.2419M15.3632 60.4202L15.8585 59.7469M16.1887 60.7569V59.9152H16.8491V60.2519L16.293 60.4202M16.8491 60.9252H17.1792V60.4202L17.3443 60.2519M17.8396 60.9252L18.0047 60.7569V60.2519L18.3349 60.9252M19.8208 60.0835L20.1509 60.7569L20.4811 60.4202V60.0019M20.9764 59.7469V60.4202H21.4717M21.4717 59.4102H21.967L21.8019 60.0835M22.1321 58.7369L22.2972 59.2419L22.6274 59.4102M22.7925 58.2319V58.7369H23.2877M13.5472 52.0037L14.2075 52.6771M14.0425 51.4988L14.5377 51.6671V52.1721M14.7028 50.9938L14.8679 51.4988L15.4793 51.6671M15.4793 51.3304V50.8254H14.8679M16.0236 50.1521V51.1621L16.5189 50.9938M17.1792 50.6571L16.8491 49.9838M17.5094 50.8254L17.6745 49.8155L17.8396 49.9838M18.5748 50.6571L18.1698 50.4888V49.8155L18.5748 49.6471M19.3255 49.9838H18.9953V50.6571M19.6557 50.6571V49.9838H19.9859M20.316 50.9938V50.6571L20.8113 50.1521M20.9764 50.9938L21.1415 50.4888H21.4717L21.3066 50.9938H21.1415M21.8019 51.6671V51.1621L22.2972 50.8254M22.1321 52.0037L22.7925 51.4988M22.7925 52.5087L22.9575 52.1721L23.4528 52.0037L23.1226 52.3404M3.8066 86.6796L3.9717 77.4215L5.45755 69.005L7.60043 60.4336M3.8066 86.6796H10.2453M7.60377 60.4202L7.60043 60.4336M10.2453 86.6796V80.788C10.2453 80.788 10.4178 77.4005 10.5755 75.2332C10.7383 72.9956 11.0708 69.51 11.0708 69.51L11.7149 65.0771M10.2453 86.6796H13.217M11.7311 64.9651L11.7149 65.0771M14.3726 70.3516L13.8774 75.2332L13.217 80.788V86.6796M14.3726 70.3516L15.5283 67.6584M14.3726 70.3516L15.5283 67.6022M27.25 63.9551L27.3302 64.1186M28.2406 56.212V54.0237L27.25 51.1621L25.5991 49.3105L22.2972 46.9539M14.5377 46.9539L12.2264 48.1322L10.5755 49.8155L9.25472 52.3404L8.75943 54.0237V56.212M10.0802 43.0823L12.8868 43.7556M12.8868 43.7556L16.8491 44.4289L20.8113 44.0923L24.3711 43.7623M12.8868 43.7556L9.95257 42.9246M27.25 43.0823L24.4434 43.7556L24.3711 43.7623M27.25 43.0823L24.3711 43.7623M27.25 43.0823L27.6245 44.5973M1.33019 129.099L6.28302 129.94M1.33019 129.099H1M1.33019 129.099H1.66038M6.28302 129.94L9.58491 127.92L13.8774 126.742H23.783L28.2406 128.425L31.2123 129.099L36 128.425M6.28302 129.94L1.66038 129.099M11.7149 65.0771L13.0519 65.6384L15.5283 67.6022M11.7149 65.0771L10.2453 64.4601L8.75943 62.2718L7.60043 60.4336M27.3302 64.1186L26.4245 64.9651L23.6179 65.6384L21.8019 67.3217L19.3255 68.5L16.0236 67.995L15.5283 67.6022M27.3302 64.1186L28.4057 63.1135L29.2311 60.4202L31.8974 58.981M27.3302 64.1186L28.7359 66.985L29.2311 70.8566L29.7264 74.5599L30.2217 78.7681L30.5519 83.1446V86.6796M31.8974 58.981L32.0377 58.9052L28.0392 46.5237M31.8974 58.981L31.1144 56.586M5.22765 58.9524L5.12736 58.9052L5.91256 57.1193M5.22765 58.9524L7.27359 59.9152L7.60043 60.4336M5.22765 58.9524L5.91256 57.1193M5.91256 57.1193L6.9434 54.3604L7.98113 50.4166M5.91256 57.1193L6.13315 56.6176M7.98113 50.4166L7.27359 54.0237L6.13315 56.6176M7.98113 50.4166L9.3717 45.1321M7.98113 50.4166L8.09906 49.8155L9.25472 45.1022L9.3717 45.1321M6.13315 56.6176L8.59434 57.5586L10.0802 59.7469L11.0708 61.7668L12.3915 63.1135H14.7028L16.5189 65.4701L18.3349 66.1434L20.4811 65.4701L22.6274 63.1135H25.1038L26.4245 61.0935L27.5802 58.4003L29.8915 57.0536L31.1144 56.586M31.1144 56.586L30.3868 54.3604L28.2406 47.4589L28.0392 46.5237M28.0392 46.5237L27.6245 44.5973M9.3717 45.1321L9.91509 42.914L9.95257 42.9246M9.3717 45.1321L9.95257 42.9246M27.6245 44.5973L26.7547 40.5574L25.1038 32.9825L24.4434 23.7244V13.6247L25.1038 11.0998V5.54489L24.4434 4.87157V1.84165L22.9575 1H13.3821L11.7311 1.84165V5.54489L10.5755 11.7731L12.7217 16.318V23.7244L11.7311 32.9825L10.5755 40.5574L9.95257 42.9246M13.217 86.6796H30.5519M25.0419 56.5066C25.0419 56.5066 25.0414 56.5091 25.0405 56.5139M25.0419 56.5066L25.0405 56.5139M25.0295 56.5654C25.0328 56.5506 25.0355 56.5383 25.0375 56.5288M25.0295 56.5654L25.0375 56.5288M11.7311 53.1484L12.0613 52.4456M11.7311 53.1484L11.7495 53.1446M15.033 53.4813L13.7123 53.182L13.217 52.8454L11.7495 53.1446M25.0405 56.5139C25.0397 56.5175 25.0387 56.5225 25.0375 56.5288M25.0405 56.5139L25.0375 56.5288M1.66038 129.099H1M1.66038 129.099L2.32075 129.267M30.2217 102.671L29.7264 101.661L29.8915 100.146L30.2217 99.3043L30.8821 99.4726L31.0472 100.483V101.998L30.2217 102.671ZM18.6651 60.9252V60.3445L18.9953 60.5885V60.9252H18.6651Z" stroke="#934208" stroke-opacity="0.2" stroke-width="0.5"/>
<path d="M36 129.267L35.1745 132.297L32.6981 134.485L29.7264 135.327L25.434 136H12.7217M36 129.267V123.712M36 129.267V128.425M12.7217 136L7.43868 135.327L3.47642 134.485M12.7217 136L3.47642 134.485M3.47642 134.485L1.99057 132.297L1 130.445M3.47642 134.485L1 130.445M1 130.445V123.712M1 130.445V129.099M1 123.712L6.7783 124.554L12.2264 124.89H24.2783L27.0849 124.661M1 123.712V120.682M33.1934 124.049L28.4057 124.554L27.0849 124.661M33.1934 124.049L36 123.712M33.1934 124.049L27.0849 124.661M36 123.712V120.682M36 123.712V128.425M36 86.6796V78.4314L35.1745 70.52L32.6981 61.4302L31.8974 58.981M36 86.6796V120.682M36 86.6796H30.5519M36 86.6796V90.2145M1 86.6796V78.4314L1.99057 70.52L4.30189 61.4302L5.22765 58.9524M1 86.6796V120.682M1 86.6796H3.8066M1 86.6796H13.217M1 86.6796V90.2145M1 120.682L5.95283 121.355L8.59434 122.87L12.7217 123.712L17.1792 124.217H19.8208L23.2877 124.049L26.7547 123.375M1 120.682V90.2145M1 120.682V92.7394M1 120.682V107.047M1 120.682V114.791M1 120.682V118.157M26.7547 123.375L29.8915 122.365L29.9288 122.345M26.7547 123.375L29.9288 122.345M36 120.682L34.184 121.187L31.7075 121.355L29.9288 122.345M36 120.682V90.2145M36 120.682V92.7394M36 120.682V107.047M36 120.682V115.464M36 120.682V118.157M1 118.157L5.95283 118.83L8.26415 120.177L11.0708 121.019L14.2075 121.524L17.6745 121.86H20.9764L24.4434 121.524L27.25 121.019L29.2311 120.177L31.5425 118.83L34.184 118.494M1 118.157V114.791M34.184 118.494L36 118.157M34.184 118.494L35.8349 118.157H36M36 118.157V115.464M1 114.791L1.99057 115.127L2.65094 116.81L3.31132 117.315L4.79717 116.81L5.95283 117.315L6.44811 117.82H8.59434L9.08962 118.494L9.41981 117.82H9.91509L10.4104 118.494L11.566 118.83V118.157L13.0519 118.494L14.7028 118.157L15.033 118.83H16.684L17.3443 118.157L18.3349 120.177L19.9859 118.83H22.2972L22.7925 118.157L23.783 118.83L25.434 118.157L25.7642 118.83L26.5896 118.494L27.25 117.82H27.9104V118.494H28.5708L28.7359 117.652H29.8915L30.8821 118.157L31.5425 117.315L32.8632 116.81L33.6887 117.315H34.5142L35.3396 115.801L36 115.464M1 114.791V107.047M36 115.464V107.047M36 107.047H35.3396L34.8443 108.394L34.5142 110.751L33.1934 111.256L32.2028 112.602L31.8726 114.286H30.5519L29.8915 113.949L28.9009 114.622L27.5802 114.286L26.5896 115.464L25.1038 115.127V114.622H23.4528L23.1226 115.127H21.967L21.4717 114.286L19.9859 115.127H19.4906L19.1604 114.286L17.6745 115.127L17.0142 114.286H15.8585L15.5283 115.127H14.2075V114.286H12.7217L12.3915 115.127H11.0708L9.91509 114.286H8.59434L7.43868 113.949V114.622L6.44811 114.286H5.95283L5.12736 112.602L3.9717 111.256L2.81604 110.919V108.899L2.48585 107.216L1.33019 107.047H1M36 107.047V92.7394M1 107.047V92.7394M1 92.7394H5.95283L8.26415 91.7294L11.0708 91.0561L14.2075 90.5511L20.4811 90.2145L23.783 90.5511L27.25 91.0561L29.8915 92.0661L31.3774 92.9077L36 92.7394M1 92.7394V90.2145M36 92.7394V90.2145M36 90.2145H31.8726L29.8915 89.0362L27.25 88.3628L24.4434 87.8579L21.967 87.5212H16.684L14.2075 87.8579L11.0708 88.3628L8.26415 89.0362L6.44811 89.7095L5.12736 90.2145H1M5.15254 106L3.31132 105.196L2.48585 103.007V97.9576L2.81604 95.2643L3.9717 94.086H5.62264L6.44811 94.9277L7.10849 94.086L7.43868 94.7594L7.10849 96.2743L6.7783 98.2943M5.15254 106L8.59434 104.859V106.374H12.5566L13.217 107.889L14.0425 106.206L15.3632 106.374H18.1698L18.3349 107.216L18.9953 106.374H20.1509L20.6462 107.047H21.3066L21.4717 106.206H24.4434V107.047L24.7736 106.879L25.434 106.206H26.9198M5.15254 106L4.79717 109.741L5.74576 108.373L7.22881 110.153L9.00847 108.373L9.91509 109.741L10.4104 109.236V109.741H12.3915V108.394L12.7217 109.741H13.3821L13.7123 108.057V109.741H16.3538V107.216H17.0142V109.909H19.9859V109.572H20.316V109.909H22.7925L22.6274 108.226H23.2877V110.077H24.4434L24.6085 109.404L25.2689 109.909H26.4245L26.9198 109.404M5.15254 106L7.22881 103.331L5.95283 100.483L9.41981 100.819L8.26415 102.334L10.5755 103.849L11.7311 102.839L12.0613 102.671L13.3821 103.681H15.033L16.0236 102.839V102.334H15.3632L14.7028 103.007L13.7123 102.839L13.5472 101.493L16.1887 101.324L16.3538 100.483H17.0142L17.3443 99.3043L17.6745 99.4726V103.007H17.1792V103.849H19.4906V103.007H18.9953V99.6409H19.4906L19.9859 100.819H20.4811L20.6462 102.503L21.8019 103.681L23.6179 103.849L24.4434 103.007M26.9198 109.404L27.0849 109.909H28.2406V109.404L28.4057 108.899L28.9009 109.909H31.0472L31.5425 109.236H31.8726L32.3679 109.741H33.1934L33.5236 109.067V108.394H33.0283V108.899H32.533V108.057H33.5236V106.711L33.0283 106.037L31.8726 106.374L31.5425 106.711L30.8821 106.037H29.8915L28.5708 106.206V107.047H28.0755V106.206H26.9198M26.9198 109.404V109.067L26.4245 108.562L26.0943 109.236H25.434V107.552L25.7642 106.879L26.0943 107.384L26.9198 107.721V106.206M24.4434 103.007H24.7736V104.017L26.7547 103.849V103.176L26.4245 101.829H26.7547L27.7453 103.681H31.0472L31.8726 102.671H32.533L33.1934 103.512H34.0189L34.6792 102.671V101.829L34.0189 101.998V102.671H33.5236L33.1934 101.156H34.5142V98.9676L33.8538 98.2943H27.4151L27.25 99.1359L26.9198 99.6409L26.7547 98.2943H24.7736M24.4434 103.007V101.998L23.2877 103.007L21.967 101.829L22.1321 99.9776L23.1226 99.4726L23.6179 100.483H24.6085L24.7736 98.2943M24.7736 98.2943L21.8019 98.4626L20.9764 99.6409L20.4811 98.4626H16.3538L16.1887 99.4726L15.033 98.4626L13.0519 98.6309L11.8962 99.6409L11.0708 98.4626H8.09906L7.43868 98.6309L6.7783 98.2943M6.7783 98.2943L5.95283 97.9576M5.95283 97.9576L5.62264 95.9377L4.96226 95.096L3.9717 95.2643L3.47642 97.621V101.324L3.64151 103.176L4.30189 104.354L4.79717 103.681H5.45755L4.79717 102.503L4.46698 100.819L4.79717 99.3043L5.95283 97.9576ZM16.0236 95.9377L16.684 94.086M17.0142 95.9377L17.6745 95.601M17.6745 95.601L18.5 94.2544H17.3443L17.1792 94.9277L17.6745 95.601ZM18.9953 94.086H19.6557L19.4906 95.2643M19.4906 95.2643L18.8302 95.096M19.4906 95.2643L18.5 96.2743M21.4717 94.086H20.6462L20.316 94.8435M20.316 94.8435L19.9859 95.601L20.4811 95.9377L21.1415 95.4327L20.316 94.8435ZM27.5802 45.1022L24.2783 45.7756L20.316 46.2806H16.0236L11.8962 45.7756L9.3717 45.1321M27.5802 45.1022L28.0392 46.5237M27.5802 45.1022L27.6245 44.5973M15.5283 11.9414V4.53491M22.2972 13.288V10.5948L21.6368 4.53491M21.1415 15.9813L22.2972 14.298M17.0142 14.803L15.5283 13.288M17.0142 11.0998L17.5094 8.40648L17.0142 4.53491M19.4906 6.38653V2.85162M19.4906 12.6147L18.3349 10.0898M12.7217 11.0998L13.7123 7.05985L14.2075 4.53491V2.85162M5.95283 56.5486L6.13315 56.6176M31.2123 56.5486L31.1144 56.586M26.0943 56.3803L25.7642 58.4003L24.7736 60.0835L20.4811 63.4501H18.9953L18.3349 63.9551L18.0047 63.4501H16.5189L13.8774 61.4302L11.7311 59.2419L10.7406 56.5486V56.3803M26.0943 56.3803L26.9198 55.8753L26.4245 54.3604M26.0943 56.3803H25.1038L25.0419 56.5066M26.4245 54.3604L25.7642 52.0037L23.783 49.6471L21.6368 48.3005L19.9859 47.2905H18.9953L18.3349 46.6172L18.0047 47.2905L16.5189 47.6272L14.3726 48.8055L12.8868 50.1521L11.2358 52.0037L10.7406 54.3604L10.0802 55.5387L10.7406 56.3803M26.4245 54.3604H25.7642V53.5187L25.1038 52.8454M10.7406 56.3803L12.0613 56.212V57.3903M10.7406 56.3803V56.717M15.1981 57.5586L15.6934 56.5486L16.8491 55.8753L17.1792 57.5586L18.3349 58.4003L19.8208 57.2219V56.212L21.1415 56.3803M15.1981 57.5586L16.5189 58.7369L17.6745 59.2419H19.3255L20.8113 58.4003L21.8019 57.3903M15.1981 57.5586L14.8886 57.1799M21.1415 56.3803L21.4717 57.3903H21.8019M21.1415 56.3803L21.3066 55.5387L21.6368 54.5287L20.8113 53.3504M21.8019 57.3903L22.1321 57.2219L22.6274 56.717L22.7925 56.8432M15.1981 53.3504L16.5189 52.0037L18.0047 51.4988H19.8208L20.8113 52.3404L21.8019 53.3504M15.1981 53.3504L15.8585 53.5187M15.1981 53.3504L15.033 53.4813M21.8019 53.3504H20.8113M21.8019 53.3504L22.2972 53.5187H22.9575M21.8019 53.3504L22.4623 53.5187M20.8113 53.3504H18.9953L18.3349 53.8554L17.6745 53.3504L16.5189 53.0137L15.8585 53.5187M15.8585 53.5187L15.3632 54.8653L15.5283 55.707L15.8585 56.3803M14.8679 57.3903L14.3726 56.5486M14.3726 56.5486L14.8886 57.1799M14.3726 56.5486L14.1958 56.6989M12.0613 57.3903H13.3821L14.1958 56.6989M12.0613 57.3903L12.7217 59.0736L13.8774 60.4202L16.0236 61.7668H21.1415L23.2877 60.4202L24.6085 58.5686L25.0295 56.5654M10.9057 54.0237H11.7311L11.566 53.182L11.7311 53.1484M15.1981 53.5187L15.033 53.4813M22.1321 53.5187H23.2877M23.2877 53.5187L23.783 52.8454H25.1038M23.2877 53.5187H22.9575M25.1038 52.8454L24.2783 51.4988L22.9575 50.1521L20.6462 49.1422L18.3349 48.8055L15.1981 49.4788L13.217 50.8254L12.0613 52.4456M23.2877 57.2219C23.2877 57.2219 24.1802 57.6905 24.6085 57.3903M23.2877 57.2219L22.7925 56.8432M23.2877 57.2219L24.6085 57.3903M24.6085 57.3903L25.0419 56.5066M24.6085 57.3903C24.8638 57.2113 24.9916 56.7329 25.0295 56.5654M11.8962 52.6771L12.0613 52.4456M25.1038 56.212L25.0419 56.5066M11.7311 53.182L11.7495 53.1446M12.0613 52.5087L11.7495 53.1446M14.0425 56.3803L13.3821 54.8653L14.2075 53.3504M13.8774 56.212L14.1958 56.6989M14.2075 56.717L14.1958 56.6989M15.1981 57.3903L14.8886 57.1799M14.7028 57.0536L14.8886 57.1799M22.7925 56.8853V56.8432M22.9575 53.5187L23.4528 54.3604L23.6179 55.0337L23.2877 55.202L22.7925 55.8753V56.8432M22.2972 57.2219L21.967 57.3903M13.7123 58.7369L14.2075 58.2319L14.7028 58.8476L14.0425 59.4102M14.5377 59.7469L15.1981 59.2419M15.3632 60.4202L15.8585 59.7469M16.1887 60.7569V59.9152H16.8491V60.2519L16.293 60.4202M16.8491 60.9252H17.1792V60.4202L17.3443 60.2519M17.8396 60.9252L18.0047 60.7569V60.2519L18.3349 60.9252M19.8208 60.0835L20.1509 60.7569L20.4811 60.4202V60.0019M20.9764 59.7469V60.4202H21.4717M21.4717 59.4102H21.967L21.8019 60.0835M22.1321 58.7369L22.2972 59.2419L22.6274 59.4102M22.7925 58.2319V58.7369H23.2877M13.5472 52.0037L14.2075 52.6771M14.0425 51.4988L14.5377 51.6671V52.1721M14.7028 50.9938L14.8679 51.4988L15.4793 51.6671M15.4793 51.3304V50.8254H14.8679M16.0236 50.1521V51.1621L16.5189 50.9938M17.1792 50.6571L16.8491 49.9838M17.5094 50.8254L17.6745 49.8155L17.8396 49.9838M18.5748 50.6571L18.1698 50.4888V49.8155L18.5748 49.6471M19.3255 49.9838H18.9953V50.6571M19.6557 50.6571V49.9838H19.9859M20.316 50.9938V50.6571L20.8113 50.1521M20.9764 50.9938L21.1415 50.4888H21.4717L21.3066 50.9938H21.1415M21.8019 51.6671V51.1621L22.2972 50.8254M22.1321 52.0037L22.7925 51.4988M22.7925 52.5087L22.9575 52.1721L23.4528 52.0037L23.1226 52.3404M3.8066 86.6796L3.9717 77.4215L5.45755 69.005L7.60043 60.4336M3.8066 86.6796H10.2453M7.60377 60.4202L7.60043 60.4336M10.2453 86.6796V80.788C10.2453 80.788 10.4178 77.4005 10.5755 75.2332C10.7383 72.9956 11.0708 69.51 11.0708 69.51L11.7149 65.0771M10.2453 86.6796H13.217M11.7311 64.9651L11.7149 65.0771M14.3726 70.3516L13.8774 75.2332L13.217 80.788V86.6796M14.3726 70.3516L15.5283 67.6584M14.3726 70.3516L15.5283 67.6022M27.25 63.9551L27.3302 64.1186M28.2406 56.212V54.0237L27.25 51.1621L25.5991 49.3105L22.2972 46.9539M14.5377 46.9539L12.2264 48.1322L10.5755 49.8155L9.25472 52.3404L8.75943 54.0237V56.212M10.0802 43.0823L12.8868 43.7556M12.8868 43.7556L16.8491 44.4289L20.8113 44.0923L24.3711 43.7623M12.8868 43.7556L9.95257 42.9246M27.25 43.0823L24.4434 43.7556L24.3711 43.7623M27.25 43.0823L24.3711 43.7623M27.25 43.0823L27.6245 44.5973M1.33019 129.099L6.28302 129.94M1.33019 129.099H1M1.33019 129.099H1.66038M6.28302 129.94L9.58491 127.92L13.8774 126.742H23.783L28.2406 128.425L31.2123 129.099L36 128.425M6.28302 129.94L1.66038 129.099M11.7149 65.0771L13.0519 65.6384L15.5283 67.6022M11.7149 65.0771L10.2453 64.4601L8.75943 62.2718L7.60043 60.4336M27.3302 64.1186L26.4245 64.9651L23.6179 65.6384L21.8019 67.3217L19.3255 68.5L16.0236 67.995L15.5283 67.6022M27.3302 64.1186L28.4057 63.1135L29.2311 60.4202L31.8974 58.981M27.3302 64.1186L28.7359 66.985L29.2311 70.8566L29.7264 74.5599L30.2217 78.7681L30.5519 83.1446V86.6796M31.8974 58.981L32.0377 58.9052L28.0392 46.5237M31.8974 58.981L31.1144 56.586M5.22765 58.9524L5.12736 58.9052L5.91256 57.1193M5.22765 58.9524L7.27359 59.9152L7.60043 60.4336M5.22765 58.9524L5.91256 57.1193M5.91256 57.1193L6.9434 54.3604L7.98113 50.4166M5.91256 57.1193L6.13315 56.6176M7.98113 50.4166L7.27359 54.0237L6.13315 56.6176M7.98113 50.4166L9.3717 45.1321M7.98113 50.4166L8.09906 49.8155L9.25472 45.1022L9.3717 45.1321M6.13315 56.6176L8.59434 57.5586L10.0802 59.7469L11.0708 61.7668L12.3915 63.1135H14.7028L16.5189 65.4701L18.3349 66.1434L20.4811 65.4701L22.6274 63.1135H25.1038L26.4245 61.0935L27.5802 58.4003L29.8915 57.0536L31.1144 56.586M31.1144 56.586L30.3868 54.3604L28.2406 47.4589L28.0392 46.5237M28.0392 46.5237L27.6245 44.5973M9.3717 45.1321L9.91509 42.914L9.95257 42.9246M9.3717 45.1321L9.95257 42.9246M27.6245 44.5973L26.7547 40.5574L25.1038 32.9825L24.4434 23.7244V13.6247L25.1038 11.0998V5.54489L24.4434 4.87157V1.84165L22.9575 1H13.3821L11.7311 1.84165V5.54489L10.5755 11.7731L12.7217 16.318V23.7244L11.7311 32.9825L10.5755 40.5574L9.95257 42.9246M13.217 86.6796H30.5519M25.0419 56.5066C25.0419 56.5066 25.0414 56.5091 25.0405 56.5139M25.0419 56.5066L25.0405 56.5139M25.0295 56.5654C25.0328 56.5506 25.0355 56.5383 25.0375 56.5288M25.0295 56.5654L25.0375 56.5288M11.7311 53.1484L12.0613 52.4456M11.7311 53.1484L11.7495 53.1446M15.033 53.4813L13.7123 53.182L13.217 52.8454L11.7495 53.1446M25.0405 56.5139C25.0397 56.5175 25.0387 56.5225 25.0375 56.5288M25.0405 56.5139L25.0375 56.5288M1.66038 129.099H1M1.66038 129.099L2.32075 129.267M30.2217 102.671L29.7264 101.661L29.8915 100.146L30.2217 99.3043L30.8821 99.4726L31.0472 100.483V101.998L30.2217 102.671ZM18.6651 60.9252V60.3445L18.9953 60.5885V60.9252H18.6651Z" stroke="black" stroke-opacity="0.2" stroke-width="0.5"/>
</svg>
