<svg width="40" height="40" viewBox="0 0 40 40" fill="none" xmlns="http://www.w3.org/2000/svg">
<g clip-path="url(#clip0_29_516)">
<g filter="url(#filter0_d_29_516)">
<path d="M26.8861 6.19055C24.0289 6.19055 21.5051 7.62863 20.0002 9.81912C18.4956 7.62863 15.9717 6.19055 13.1146 6.19055C8.50506 6.19055 4.76221 9.9334 4.76221 14.5429C4.76221 24.7239 20.0002 33.8763 20.0002 33.8763C20.0002 33.8763 35.2384 24.7239 35.2384 14.5429C35.2384 9.9334 31.4956 6.19055 26.8861 6.19055Z" fill="#F10808"/>
<path opacity="0.5" d="M30.3427 6.93359C34.9142 14.2193 30.7047 23.7812 25.6476 26.4955C20.0666 29.4955 16.2475 28.086 8.34277 23.6003C12.8475 29.5717 19.9999 33.867 19.9999 33.867C19.9999 33.867 35.2381 24.7145 35.2381 14.5336C35.2381 11.1622 33.2284 8.24788 30.3427 6.93359Z" fill="#FF0000"/>
<path opacity="0.5" d="M26.8861 6.19055C24.0289 6.19055 21.5051 7.62863 20.0002 9.81912C18.4956 7.62863 15.9717 6.19055 13.1146 6.19055C8.50506 6.19055 4.76221 9.9334 4.76221 14.5429C4.76221 24.7239 20.0002 33.8763 20.0002 33.8763C20.0002 33.8763 35.2384 24.7239 35.2384 14.5429C35.2384 9.9334 31.4956 6.19055 26.8861 6.19055Z" fill="#DF1919"/>
<g opacity="0.5" filter="url(#filter1_d_29_516)">
<path d="M26.8861 6.19055C24.0289 6.19055 21.5051 7.62863 20.0002 9.81912C18.4956 7.62863 15.9717 6.19055 13.1146 6.19055C8.50506 6.19055 4.76221 9.9334 4.76221 14.5429C4.76221 24.7239 20.0002 33.8763 20.0002 33.8763C20.0002 33.8763 35.2384 24.7239 35.2384 14.5429C35.2384 9.9334 31.4956 6.19055 26.8861 6.19055Z" fill="#E22A18"/>
<path d="M26.8861 6.19055C24.0289 6.19055 21.5051 7.62863 20.0002 9.81912C18.4956 7.62863 15.9717 6.19055 13.1146 6.19055C8.50506 6.19055 4.76221 9.9334 4.76221 14.5429C4.76221 24.7239 20.0002 33.8763 20.0002 33.8763C20.0002 33.8763 35.2384 24.7239 35.2384 14.5429C35.2384 9.9334 31.4956 6.19055 26.8861 6.19055Z" stroke="black"/>
</g>
<path opacity="0.24" d="M17.9144 9.58134C18.7524 11.5528 16.8952 14.229 13.762 15.5528C10.6286 16.8766 7.41913 16.3623 6.58103 14.4004C5.74293 12.4385 7.60008 9.75278 10.7334 8.42896C13.8667 7.10516 17.0762 7.60991 17.9144 9.58134Z" fill="white" fill-opacity="0.3"/>
<path opacity="0.24" d="M28.1238 7.98145C29.3143 9.29574 28.581 11.8957 26.4953 13.7815C24.4095 15.6672 21.7523 16.1338 20.562 14.8195C19.3715 13.5053 20.1048 10.9053 22.1905 9.01955C24.2761 7.13384 26.9333 6.66717 28.1238 7.98145Z" fill="white" fill-opacity="0.3"/>
<path opacity="0.32" d="M27.0379 8.40959C31.2284 9.83817 35.2284 16.0286 28.4666 23.7429C24.4189 28.3619 19.9999 30.6953 14.3809 29.781C17.4189 32.3143 20.0094 33.8763 20.0094 33.8763C20.0094 33.8763 35.2476 24.7239 35.2476 14.5429C35.2379 9.9334 31.4951 6.19055 26.8856 6.19055C24.0284 6.19055 21.5046 7.62863 19.9999 9.81912C19.9999 9.81912 23.9713 7.36197 27.0379 8.40959Z" fill="#AA120E"/>
</g>
<g clip-path="url(#clip1_29_516)">
<g filter="url(#filter2_d_29_516)">
<path d="M25.75 19.5C25.75 22.9516 22.9516 25.75 19.5 25.75C16.0484 25.75 13.25 22.9516 13.25 19.5C13.25 16.0484 16.0484 13.25 19.5 13.25C22.9516 13.25 25.75 16.0484 25.75 19.5Z" fill="#4CAF50"/>
<path d="M25.5 19.5C25.5 22.8135 22.8135 25.5 19.5 25.5C16.1865 25.5 13.5 22.8135 13.5 19.5C13.5 16.1865 16.1865 13.5 19.5 13.5C22.8135 13.5 25.5 16.1865 25.5 19.5Z" stroke="black" stroke-width="0.5"/>
</g>
<mask id="path-10-inside-1_29_516" fill="white">
<path fill-rule="evenodd" clip-rule="evenodd" d="M20.4374 16.375H18.5624V18.5625H16.375V20.4375H18.5624V22.625H20.4374V20.4375H22.625V18.5625H20.4374V16.375Z"/>
</mask>
<path fill-rule="evenodd" clip-rule="evenodd" d="M20.4374 16.375H18.5624V18.5625H16.375V20.4375H18.5624V22.625H20.4374V20.4375H22.625V18.5625H20.4374V16.375Z" fill="white"/>
<path d="M18.5624 16.375V15.875H18.0624V16.375H18.5624ZM20.4374 16.375H20.9374V15.875H20.4374V16.375ZM18.5624 18.5625V19.0625H19.0624V18.5625H18.5624ZM16.375 18.5625V18.0625H15.875V18.5625H16.375ZM16.375 20.4375H15.875V20.9375H16.375V20.4375ZM18.5624 20.4375H19.0624V19.9375H18.5624V20.4375ZM18.5624 22.625H18.0624V23.125H18.5624V22.625ZM20.4374 22.625V23.125H20.9374V22.625H20.4374ZM20.4374 20.4375V19.9375H19.9374V20.4375H20.4374ZM22.625 20.4375V20.9375H23.125V20.4375H22.625ZM22.625 18.5625H23.125V18.0625H22.625V18.5625ZM20.4374 18.5625H19.9374V19.0625H20.4374V18.5625ZM18.5624 16.875H20.4374V15.875H18.5624V16.875ZM19.0624 18.5625V16.375H18.0624V18.5625H19.0624ZM16.375 19.0625H18.5624V18.0625H16.375V19.0625ZM16.875 20.4375V18.5625H15.875V20.4375H16.875ZM18.5624 19.9375H16.375V20.9375H18.5624V19.9375ZM19.0624 22.625V20.4375H18.0624V22.625H19.0624ZM20.4374 22.125H18.5624V23.125H20.4374V22.125ZM19.9374 20.4375V22.625H20.9374V20.4375H19.9374ZM22.625 19.9375H20.4374V20.9375H22.625V19.9375ZM22.125 18.5625V20.4375H23.125V18.5625H22.125ZM20.4374 19.0625H22.625V18.0625H20.4374V19.0625ZM19.9374 16.375V18.5625H20.9374V16.375H19.9374Z" fill="black" mask="url(#path-10-inside-1_29_516)"/>
</g>
</g>
<defs>
<clipPath id="clip0_29_516">
<rect width="40" height="40" fill="white"/>
</clipPath>
<clipPath id="clip1_29_516">
<rect width="15" height="15" fill="white" transform="translate(12 12)"/>
</clipPath>
</defs>
</svg>
