<svg width="37" height="36" viewBox="0 0 37 36" fill="none" xmlns="http://www.w3.org/2000/svg">
<g filter="url(#filter0_d_379_984)">
<path d="M23.8861 2.19055C21.0289 2.19055 18.5051 3.62863 17.0002 5.81912C15.4956 3.62863 12.9717 2.19055 10.1146 2.19055C5.50506 2.19055 1.76221 5.9334 1.76221 10.5429C1.76221 20.7239 17.0002 29.8763 17.0002 29.8763C17.0002 29.8763 32.2384 20.7239 32.2384 10.5429C32.2384 5.9334 28.4956 2.19055 23.8861 2.19055Z" fill="#F10808"/>
<path opacity="0.5" d="M27.3427 2.93359C31.9142 10.2193 27.7047 19.7812 22.6476 22.4955C17.0666 25.4955 13.2475 24.086 5.34277 19.6003C9.84752 25.5717 16.9999 29.867 16.9999 29.867C16.9999 29.867 32.2381 20.7145 32.2381 10.5336C32.2381 7.16216 30.2284 4.24788 27.3427 2.93359Z" fill="#FF0000"/>
<path opacity="0.5" d="M23.8861 2.19055C21.0289 2.19055 18.5051 3.62863 17.0002 5.81912C15.4956 3.62863 12.9717 2.19055 10.1146 2.19055C5.50506 2.19055 1.76221 5.9334 1.76221 10.5429C1.76221 20.7239 17.0002 29.8763 17.0002 29.8763C17.0002 29.8763 32.2384 20.7239 32.2384 10.5429C32.2384 5.9334 28.4956 2.19055 23.8861 2.19055Z" fill="#DF1919"/>
<g opacity="0.5" filter="url(#filter1_d_379_984)">
<path d="M23.8861 2.19055C21.0289 2.19055 18.5051 3.62863 17.0002 5.81912C15.4956 3.62863 12.9717 2.19055 10.1146 2.19055C5.50506 2.19055 1.76221 5.9334 1.76221 10.5429C1.76221 20.7239 17.0002 29.8763 17.0002 29.8763C17.0002 29.8763 32.2384 20.7239 32.2384 10.5429C32.2384 5.9334 28.4956 2.19055 23.8861 2.19055Z" fill="#E22A18"/>
<path d="M23.8861 2.19055C21.0289 2.19055 18.5051 3.62863 17.0002 5.81912C15.4956 3.62863 12.9717 2.19055 10.1146 2.19055C5.50506 2.19055 1.76221 5.9334 1.76221 10.5429C1.76221 20.7239 17.0002 29.8763 17.0002 29.8763C17.0002 29.8763 32.2384 20.7239 32.2384 10.5429C32.2384 5.9334 28.4956 2.19055 23.8861 2.19055Z" stroke="black"/>
</g>
<path opacity="0.24" d="M14.9144 5.58134C15.7524 7.55278 13.8952 10.229 10.762 11.5528C7.62865 12.8766 4.41913 12.3623 3.58103 10.4004C2.74293 8.43849 4.60008 5.75278 7.73341 4.42896C10.8667 3.10516 14.0762 3.60991 14.9144 5.58134Z" fill="white" fill-opacity="0.3"/>
<path opacity="0.24" d="M25.1238 3.98145C26.3143 5.29574 25.581 7.89574 23.4953 9.78145C21.4095 11.6672 18.7523 12.1338 17.562 10.8195C16.3715 9.50525 17.1048 6.90525 19.1905 5.01955C21.2761 3.13384 23.9333 2.66717 25.1238 3.98145Z" fill="white" fill-opacity="0.3"/>
<path opacity="0.32" d="M24.0379 4.40959C28.2284 5.83817 32.2284 12.0286 25.4666 19.743C21.4189 24.3619 16.9999 26.6953 11.3809 25.781C14.4189 28.3143 17.0094 29.8763 17.0094 29.8763C17.0094 29.8763 32.2476 20.7239 32.2476 10.5429C32.2379 5.9334 28.4951 2.19055 23.8856 2.19055C21.0284 2.19055 18.5046 3.62863 16.9999 5.81912C16.9999 5.81912 20.9713 3.36197 24.0379 4.40959Z" fill="#AA120E"/>
</g>
<defs>
<filter id="filter0_d_379_984" x="0.262207" y="0.690552" width="37.4761" height="34.769" filterUnits="userSpaceOnUse" color-interpolation-filters="sRGB">
<feFlood flood-opacity="0" result="BackgroundImageFix"/>
<feColorMatrix in="SourceAlpha" type="matrix" values="0 0 0 0 0 0 0 0 0 0 0 0 0 0 0 0 0 0 127 0" result="hardAlpha"/>
<feOffset dx="2" dy="2"/>
<feGaussianBlur stdDeviation="1.5"/>
<feComposite in2="hardAlpha" operator="out"/>
<feColorMatrix type="matrix" values="0 0 0 0 0 0 0 0 0 0 0 0 0 0 0 0 0 0 0.25 0"/>
<feBlend mode="normal" in2="BackgroundImageFix" result="effect1_dropShadow_379_984"/>
<feBlend mode="normal" in="SourceGraphic" in2="effect1_dropShadow_379_984" result="shape"/>
</filter>
<filter id="filter1_d_379_984" x="1.26221" y="1.69055" width="41.4761" height="38.769" filterUnits="userSpaceOnUse" color-interpolation-filters="sRGB">
<feFlood flood-opacity="0" result="BackgroundImageFix"/>
<feColorMatrix in="SourceAlpha" type="matrix" values="0 0 0 0 0 0 0 0 0 0 0 0 0 0 0 0 0 0 127 0" result="hardAlpha"/>
<feOffset dx="5" dy="5"/>
<feGaussianBlur stdDeviation="2.5"/>
<feComposite in2="hardAlpha" operator="out"/>
<feColorMatrix type="matrix" values="0 0 0 0 0 0 0 0 0 0 0 0 0 0 0 0 0 0 0.25 0"/>
<feBlend mode="normal" in2="BackgroundImageFix" result="effect1_dropShadow_379_984"/>
<feBlend mode="normal" in="SourceGraphic" in2="effect1_dropShadow_379_984" result="shape"/>
</filter>
</defs>
</svg>
