<?xml version="1.0" encoding="UTF-8"?>
<svg xmlns="http://www.w3.org/2000/svg" xmlns:xlink="http://www.w3.org/1999/xlink" width="50px" height="31px" viewBox="0 0 50 31" version="1.1">
<g id="surface1">
<path style=" stroke:none;fill-rule:nonzero;fill:rgb(95.686275%,26.27451%,21.176471%);fill-opacity:1;" d="M 22.054688 0.0625 C 21.945312 0.0976562 21.726562 0.214844 21.5625 0.320312 C 21.394531 0.425781 21.234375 0.515625 21.199219 0.515625 C 21.164062 0.515625 21.089844 0.453125 21.035156 0.378906 C 20.863281 0.148438 20.550781 0.0898438 20.363281 0.253906 C 20.28125 0.328125 20.253906 0.390625 20.234375 0.558594 C 20.21875 0.742188 20.203125 0.769531 20.125 0.78125 C 20.074219 0.789062 19.832031 0.699219 19.570312 0.574219 C 19.015625 0.304688 18.789062 0.269531 18.367188 0.375 C 18.015625 0.457031 17.203125 0.863281 17.054688 1.019531 C 16.886719 1.203125 16.878906 1.503906 17.015625 2.222656 C 17.050781 2.398438 16.980469 2.347656 16.855469 2.105469 C 16.566406 1.546875 16.210938 1.363281 16.164062 1.757812 C 16.148438 1.894531 16.027344 1.945312 15.839844 1.890625 C 15.605469 1.828125 15.359375 1.855469 15.070312 1.984375 C 14.476562 2.25 12.816406 3.316406 12.570312 3.589844 C 12.308594 3.886719 12.320312 4.011719 12.675781 4.726562 C 12.957031 5.285156 13.046875 5.59375 12.976562 5.753906 C 12.953125 5.808594 12.90625 5.851562 12.875 5.851562 C 12.777344 5.851562 12.53125 5.558594 12.304688 5.179688 C 11.964844 4.605469 11.535156 4.230469 11.21875 4.230469 C 11.089844 4.230469 10.976562 4.335938 10.976562 4.460938 C 10.976562 4.582031 10.839844 4.707031 10.707031 4.707031 C 10.535156 4.707031 10.347656 4.859375 10.195312 5.132812 C 10.035156 5.421875 9.824219 5.585938 9.496094 5.679688 C 8.707031 5.894531 8.164062 6.179688 7.746094 6.597656 C 7.496094 6.851562 7.304688 7.167969 7.304688 7.339844 C 7.304688 7.460938 7.171875 7.617188 7 7.683594 C 6.914062 7.71875 6.585938 7.773438 6.265625 7.804688 C 5.085938 7.933594 4.261719 8.269531 4.195312 8.652344 C 4.082031 9.304688 2.546875 10.4375 1.78125 10.4375 C 1.308594 10.4375 0.992188 10.667969 0.574219 11.308594 C 0.0664062 12.085938 -0.0664062 12.464844 0.0585938 12.792969 C 0.207031 13.1875 0.390625 13.1875 1.5625 12.792969 C 2.046875 12.625 2.558594 12.472656 2.707031 12.449219 C 2.964844 12.402344 2.972656 12.40625 3.222656 12.535156 C 3.527344 12.691406 3.574219 12.683594 3.949219 12.394531 C 4.105469 12.277344 4.265625 12.179688 4.304688 12.179688 C 4.347656 12.179688 4.457031 12.292969 4.585938 12.472656 C 4.886719 12.878906 4.957031 12.90625 5.761719 12.894531 C 6.105469 12.890625 6.582031 12.875 6.816406 12.859375 L 7.246094 12.832031 L 7.265625 12.121094 C 7.28125 11.519531 7.296875 11.386719 7.355469 11.296875 C 7.539062 11.007812 7.753906 11.152344 8.261719 11.882812 C 8.539062 12.285156 8.695312 12.460938 8.875 12.582031 C 9.152344 12.773438 9.304688 12.710938 9.492188 12.332031 C 9.632812 12.054688 9.691406 12.039062 9.925781 12.242188 C 10.164062 12.445312 10.28125 12.496094 10.5 12.496094 C 10.84375 12.496094 11.125 12.210938 11.292969 11.699219 C 11.378906 11.425781 11.386719 11.359375 11.378906 10.664062 C 11.371094 10.199219 11.382812 9.925781 11.40625 9.925781 C 11.472656 9.925781 11.671875 10.238281 11.757812 10.46875 C 11.804688 10.59375 11.859375 10.847656 11.878906 11.03125 C 11.9375 11.574219 12.152344 11.84375 12.601562 11.945312 C 12.78125 11.984375 12.863281 11.984375 13.117188 11.929688 C 13.671875 11.808594 13.710938 11.726562 13.640625 10.78125 C 13.519531 9.152344 13.632812 9.0625 14.101562 10.402344 C 14.1875 10.644531 14.296875 10.914062 14.34375 10.996094 C 14.554688 11.378906 14.890625 11.402344 15.878906 11.109375 C 16.554688 10.914062 16.90625 10.929688 17.789062 11.214844 C 18.550781 11.453125 18.769531 11.445312 19.023438 11.171875 C 19.167969 11.011719 19.320312 10.941406 19.410156 10.992188 C 19.453125 11.011719 19.597656 11.175781 19.730469 11.347656 C 20.101562 11.835938 20.332031 11.9375 20.546875 11.703125 C 20.730469 11.507812 20.839844 11.078125 21 9.945312 L 21.027344 9.746094 L 21.054688 9.886719 C 21.070312 9.960938 21.097656 10.269531 21.109375 10.570312 C 21.164062 11.703125 21.371094 12.371094 21.800781 12.804688 C 22.03125 13.027344 22.234375 13.125 22.613281 13.167969 C 23.050781 13.21875 23.347656 13.367188 23.761719 13.753906 C 23.945312 13.921875 24.179688 14.105469 24.285156 14.15625 C 24.671875 14.347656 25.097656 14.289062 25.210938 14.019531 C 25.285156 13.835938 25.34375 13.296875 25.371094 12.457031 C 25.417969 11.058594 25.519531 10.007812 25.625 9.804688 C 25.6875 9.6875 25.8125 9.753906 25.859375 9.929688 C 25.882812 10.011719 25.925781 10.84375 25.957031 11.769531 C 25.988281 12.699219 26.027344 13.53125 26.050781 13.613281 C 26.125 13.921875 26.265625 14.035156 26.570312 14.035156 C 27.109375 14.035156 27.601562 13.375 27.910156 12.242188 C 27.984375 11.960938 28.046875 11.699219 28.046875 11.660156 C 28.046875 11.621094 28.066406 11.578125 28.085938 11.566406 C 28.109375 11.550781 28.125 11.683594 28.125 11.9375 C 28.125 12.425781 28.175781 12.671875 28.324219 12.910156 C 28.523438 13.230469 28.941406 13.34375 29.175781 13.148438 C 29.394531 12.960938 29.46875 12.566406 29.53125 11.308594 C 29.582031 10.34375 29.640625 9.851562 29.789062 9.160156 C 29.835938 8.957031 29.882812 9.054688 29.882812 9.359375 C 29.882812 9.632812 29.78125 12.007812 29.753906 12.382812 C 29.75 12.46875 29.761719 12.535156 29.785156 12.535156 C 29.945312 12.535156 31.238281 12.285156 31.433594 12.21875 C 31.917969 12.046875 32.179688 11.6875 32.359375 10.933594 C 32.410156 10.714844 32.507812 10.300781 32.574219 10.007812 C 32.726562 9.363281 32.847656 9.023438 32.894531 9.097656 C 32.941406 9.171875 32.9375 10.480469 32.886719 11.34375 C 32.863281 11.742188 32.851562 12.074219 32.863281 12.082031 C 32.871094 12.089844 33.191406 12.054688 33.574219 12 C 34.554688 11.859375 35.015625 11.6875 35.441406 11.308594 C 35.644531 11.125 35.820312 10.800781 35.820312 10.609375 C 35.820312 10.355469 36.070312 9.957031 36.550781 9.445312 C 37.019531 8.953125 37.023438 9 36.597656 9.898438 C 36.066406 11.011719 35.96875 11.410156 36.140625 11.738281 C 36.265625 11.984375 36.457031 12.128906 36.839844 12.253906 C 37.308594 12.410156 37.664062 12.46875 38.089844 12.449219 C 38.527344 12.425781 38.71875 12.351562 39.082031 12.058594 C 39.214844 11.953125 39.34375 11.863281 39.367188 11.863281 C 39.414062 11.863281 39.453125 12.054688 39.453125 12.304688 C 39.453125 12.460938 39.472656 12.519531 39.550781 12.59375 C 39.636719 12.683594 39.675781 12.691406 39.988281 12.691406 C 40.390625 12.691406 40.609375 12.746094 41.042969 12.945312 C 41.605469 13.203125 41.96875 13.210938 42.398438 12.980469 C 42.507812 12.917969 42.816406 12.65625 43.085938 12.390625 C 43.78125 11.714844 43.945312 11.601562 43.945312 11.796875 C 43.945312 11.898438 43.851562 12.046875 43.726562 12.148438 C 43.519531 12.316406 43.449219 12.6875 43.609375 12.792969 C 43.769531 12.898438 44.335938 12.9375 45.3125 12.910156 C 46.273438 12.882812 46.921875 12.921875 47.164062 13.023438 C 47.238281 13.054688 47.371094 13.152344 47.460938 13.242188 C 47.652344 13.433594 47.921875 13.542969 48.335938 13.597656 C 49.101562 13.707031 49.824219 13.582031 49.964844 13.320312 C 50.0625 13.132812 49.921875 12.628906 49.644531 12.152344 C 49.433594 11.800781 49.011719 11.371094 48.578125 11.070312 C 48.359375 10.921875 47.992188 10.644531 47.757812 10.453125 C 47.265625 10.054688 46.839844 9.796875 46.496094 9.6875 C 46.363281 9.648438 46.203125 9.585938 46.144531 9.554688 C 45.972656 9.464844 45.765625 9.234375 45.707031 9.066406 C 45.613281 8.796875 45.488281 8.671875 45.253906 8.601562 C 45.007812 8.527344 44.921875 8.433594 44.769531 8.058594 C 44.636719 7.738281 44.5625 7.699219 44.179688 7.734375 C 43.59375 7.792969 43.542969 7.769531 43.503906 7.433594 C 43.449219 6.964844 43.121094 6.617188 42.660156 6.546875 C 42.414062 6.507812 42.226562 6.390625 41.996094 6.125 C 41.738281 5.828125 41.214844 5.480469 40.371094 5.039062 C 39.539062 4.601562 39.015625 4.285156 38.605469 3.972656 C 38.230469 3.679688 37.992188 3.601562 37.714844 3.671875 C 37.320312 3.773438 37.1875 3.710938 37.1875 3.441406 C 37.1875 3.261719 37.097656 3.078125 36.949219 2.945312 C 36.683594 2.71875 35.523438 2.253906 35.226562 2.253906 C 34.90625 2.253906 34.382812 2.789062 34.128906 3.367188 C 33.964844 3.742188 33.710938 3.933594 33.710938 3.683594 C 33.710938 3.625 33.871094 3.253906 34.066406 2.863281 C 34.507812 1.984375 34.523438 1.875 34.269531 1.675781 C 33.941406 1.421875 32.871094 1.066406 32.378906 1.054688 C 32.207031 1.046875 32.136719 1.0625 32.074219 1.125 C 31.957031 1.234375 31.882812 1.179688 31.730469 0.867188 C 31.507812 0.414062 31.21875 0.269531 30.878906 0.433594 C 30.644531 0.550781 30.5 0.738281 30.347656 1.113281 C 30.132812 1.65625 29.949219 1.839844 29.785156 1.671875 C 29.6875 1.574219 29.742188 1.398438 29.9375 1.1875 C 30.082031 1.03125 30.113281 0.964844 30.148438 0.746094 C 30.203125 0.433594 30.167969 0.273438 30.027344 0.207031 C 29.9375 0.164062 29.867188 0.164062 29.585938 0.21875 C 29.140625 0.300781 28.863281 0.410156 28.664062 0.582031 L 28.496094 0.722656 L 28.144531 0.695312 C 27.488281 0.640625 27.472656 0.652344 27.199219 1.207031 C 26.902344 1.804688 26.339844 2.570312 26.199219 2.570312 C 26.160156 2.570312 26.136719 2.507812 26.121094 2.386719 C 26.097656 2.152344 25.96875 2.015625 25.738281 1.988281 C 25.390625 1.941406 25.21875 1.800781 25.058594 1.429688 C 25.019531 1.335938 24.933594 1.21875 24.871094 1.164062 C 24.578125 0.914062 24.335938 1.164062 24.277344 1.769531 C 24.261719 1.933594 24.234375 2.046875 24.21875 2.027344 C 24.199219 2.011719 24.136719 1.828125 24.082031 1.621094 C 23.871094 0.867188 23.542969 0.390625 23.070312 0.15625 C 22.761719 0.00390625 22.351562 -0.0351562 22.054688 0.0625 Z M 20.875 2.148438 C 20.914062 2.257812 20.84375 2.570312 20.78125 2.570312 C 20.726562 2.570312 20.691406 2.3125 20.71875 2.152344 C 20.75 1.992188 20.820312 1.988281 20.875 2.148438 Z M 10.707031 8.6875 C 10.828125 8.761719 11 9.0625 10.957031 9.132812 C 10.945312 9.152344 10.894531 9.171875 10.84375 9.171875 C 10.714844 9.171875 10.390625 8.808594 10.390625 8.664062 C 10.390625 8.597656 10.582031 8.613281 10.707031 8.6875 Z M 23.351562 10.566406 C 23.339844 10.847656 23.3125 10.957031 23.257812 10.90625 C 23.226562 10.875 23.234375 10.164062 23.265625 10.113281 C 23.320312 10.027344 23.367188 10.261719 23.351562 10.566406 Z M 23.351562 10.566406 "/>
<path style=" stroke:none;fill-rule:nonzero;fill:rgb(95.686275%,26.27451%,21.176471%);fill-opacity:1;" d="M 1.386719 14.28125 C 1.125 14.378906 0.722656 14.738281 0.621094 14.960938 C 0.554688 15.109375 0.664062 15.273438 1.148438 15.761719 C 1.792969 16.410156 2.503906 16.949219 3.285156 17.398438 C 3.523438 17.53125 3.78125 17.769531 4.21875 18.257812 C 4.449219 18.507812 4.585938 18.570312 4.804688 18.503906 C 4.988281 18.453125 5.066406 18.550781 5.097656 18.886719 C 5.144531 19.417969 5.257812 19.585938 6.035156 20.261719 C 6.453125 20.621094 6.761719 20.984375 7.214844 21.648438 C 8.011719 22.820312 8.261719 23.042969 8.769531 23.050781 C 9.261719 23.054688 9.382812 23.175781 9.605469 23.859375 C 9.691406 24.117188 9.804688 24.394531 9.859375 24.476562 C 9.988281 24.675781 10.195312 24.832031 10.367188 24.859375 C 10.488281 24.878906 10.523438 24.863281 10.640625 24.746094 C 10.714844 24.667969 10.792969 24.535156 10.820312 24.445312 C 10.84375 24.347656 10.878906 24.285156 10.894531 24.292969 C 10.910156 24.304688 10.9375 24.4375 10.949219 24.585938 C 11.027344 25.425781 11.691406 26.3125 12.324219 26.433594 C 12.660156 26.492188 12.933594 26.699219 13.710938 27.460938 C 14.75 28.488281 15.332031 28.847656 16.097656 28.941406 C 16.472656 28.984375 16.738281 29.113281 17.128906 29.441406 C 17.492188 29.75 17.8125 29.921875 18.167969 29.996094 C 18.632812 30.09375 18.890625 29.976562 18.984375 29.621094 C 19.046875 29.375 19.097656 28.914062 19.101562 28.546875 C 19.101562 28.183594 19.164062 27.71875 19.21875 27.664062 C 19.308594 27.570312 19.351562 27.847656 19.375 28.707031 C 19.398438 29.484375 19.414062 29.625 19.484375 29.8125 C 19.761719 30.535156 20.316406 30.75 20.796875 30.324219 C 20.980469 30.160156 21.179688 29.800781 21.410156 29.226562 L 21.542969 28.886719 L 21.585938 29.539062 C 21.628906 30.226562 21.695312 30.46875 21.882812 30.675781 C 22.144531 30.957031 23.105469 30.941406 23.5625 30.648438 C 23.792969 30.5 23.914062 30.238281 24.101562 29.484375 L 24.246094 28.90625 L 24.273438 29.425781 C 24.308594 30.097656 24.355469 30.300781 24.5 30.46875 C 24.664062 30.660156 24.910156 30.726562 25.554688 30.75 C 26.378906 30.785156 26.765625 30.683594 27.085938 30.351562 C 27.1875 30.246094 27.28125 30.175781 27.3125 30.1875 C 27.34375 30.203125 27.425781 30.335938 27.496094 30.484375 C 27.640625 30.800781 27.761719 30.90625 28.050781 30.960938 C 28.519531 31.050781 29.089844 30.992188 29.445312 30.816406 C 29.988281 30.550781 30.175781 29.914062 30.222656 28.195312 C 30.25 27.183594 30.28125 27.070312 30.328125 27.835938 C 30.375 28.621094 30.46875 29.539062 30.535156 29.832031 C 30.730469 30.714844 31.015625 30.707031 32.042969 29.78125 C 32.597656 29.285156 32.683594 29.21875 32.800781 29.21875 C 32.871094 29.21875 32.902344 29.261719 32.957031 29.421875 C 33.058594 29.714844 33.195312 29.851562 33.386719 29.851562 C 33.734375 29.851562 34.222656 29.375 34.546875 28.726562 C 34.675781 28.457031 34.769531 28.203125 34.960938 27.570312 C 35.011719 27.414062 35.0625 27.292969 35.078125 27.304688 C 35.09375 27.3125 35.117188 27.457031 35.128906 27.625 C 35.164062 28.027344 35.226562 28.230469 35.316406 28.230469 C 35.40625 28.230469 35.730469 27.960938 36.480469 27.242188 C 37.152344 26.597656 37.695312 26 37.863281 25.710938 C 38.046875 25.390625 38.089844 25.160156 38.117188 24.363281 L 38.144531 23.625 L 38.253906 24.179688 C 38.371094 24.773438 38.453125 25.089844 38.539062 25.296875 C 38.585938 25.417969 38.597656 25.425781 38.679688 25.382812 C 38.863281 25.28125 39.308594 24.894531 39.960938 24.269531 C 40.933594 23.332031 41.648438 22.6875 42.074219 22.359375 C 42.28125 22.203125 42.523438 21.984375 42.617188 21.878906 C 42.769531 21.703125 42.828125 21.597656 43.027344 21.121094 C 43.121094 20.90625 43.308594 20.738281 43.5 20.707031 C 43.820312 20.652344 44.878906 19.960938 45.351562 19.492188 C 45.652344 19.195312 45.722656 19.039062 45.777344 18.5 C 45.820312 18.070312 45.84375 18.023438 45.945312 18.191406 C 46.113281 18.46875 46.277344 18.492188 46.65625 18.292969 C 47.148438 18.03125 48.257812 17.082031 48.820312 16.4375 C 49.53125 15.621094 49.503906 14.828125 48.761719 14.828125 C 48.347656 14.828125 47.414062 15.132812 46.59375 15.53125 C 45.996094 15.824219 45.800781 15.964844 45.769531 16.128906 C 45.734375 16.289062 45.667969 16.285156 45.214844 16.09375 C 44.757812 15.894531 44.5 15.828125 44.089844 15.792969 C 43.695312 15.761719 43.257812 15.824219 42.972656 15.953125 C 42.683594 16.089844 42.527344 16.082031 42.269531 15.914062 C 41.796875 15.609375 40.996094 15.628906 40.613281 15.957031 C 40.453125 16.09375 40.261719 16.082031 39.886719 15.914062 C 39.484375 15.734375 39.050781 15.671875 38.679688 15.738281 C 38.195312 15.820312 38.046875 15.941406 38.046875 16.253906 C 38.046875 16.503906 38.019531 16.566406 37.902344 16.566406 C 37.761719 16.566406 37.664062 16.503906 37.421875 16.265625 C 37.085938 15.933594 36.914062 15.875 36.328125 15.875 C 35.296875 15.878906 34.804688 16.101562 34.804688 16.5625 C 34.804688 16.726562 34.929688 17.09375 35.121094 17.511719 C 35.207031 17.695312 35.265625 17.851562 35.257812 17.859375 C 35.222656 17.894531 34.914062 17.476562 34.800781 17.238281 C 34.734375 17.097656 34.667969 16.957031 34.648438 16.921875 C 34.632812 16.886719 34.554688 16.859375 34.449219 16.851562 C 34.238281 16.839844 34.054688 16.941406 33.941406 17.140625 C 33.894531 17.214844 33.835938 17.28125 33.808594 17.28125 C 33.78125 17.28125 33.648438 17.1875 33.515625 17.082031 C 33.378906 16.972656 33.226562 16.871094 33.175781 16.859375 C 33.023438 16.820312 32.90625 16.933594 32.792969 17.238281 C 32.65625 17.605469 32.5625 17.660156 32.171875 17.613281 C 31.527344 17.53125 31.304688 17.582031 30.988281 17.875 C 30.894531 17.964844 30.78125 18.03125 30.730469 18.03125 C 30.679688 18.03125 30.535156 17.953125 30.410156 17.851562 C 30.117188 17.621094 29.847656 17.539062 29.453125 17.566406 C 28.9375 17.605469 28.5 17.8125 28.371094 18.089844 C 28.316406 18.207031 28.316406 18.273438 28.390625 18.882812 C 28.488281 19.667969 28.535156 20.234375 28.503906 20.207031 C 28.488281 20.195312 28.398438 19.898438 28.300781 19.554688 C 28.097656 18.832031 27.9375 18.464844 27.773438 18.347656 C 27.710938 18.300781 27.558594 18.25 27.433594 18.226562 C 27.1875 18.183594 26.054688 18.171875 26.054688 18.210938 C 26.054688 18.222656 26.132812 18.878906 26.234375 19.664062 C 26.335938 20.484375 26.398438 21.15625 26.386719 21.230469 C 26.34375 21.464844 26.207031 21.617188 26.078125 21.566406 C 25.96875 21.523438 25.929688 21.28125 25.894531 20.382812 C 25.875 19.882812 25.839844 19.335938 25.820312 19.167969 C 25.703125 18.316406 25.460938 17.871094 25.105469 17.871094 C 24.933594 17.871094 24.117188 18.078125 23.957031 18.164062 C 23.890625 18.195312 23.714844 18.363281 23.566406 18.527344 L 23.300781 18.828125 L 23.277344 18.46875 C 23.242188 17.910156 23.117188 17.800781 22.511719 17.796875 C 21.648438 17.789062 21.066406 18.320312 20.625 19.511719 C 20.46875 19.9375 20.289062 20.246094 20.203125 20.246094 C 20.089844 20.246094 20.039062 20.160156 20.039062 19.96875 C 20.039062 19.71875 20.148438 19.414062 20.445312 18.820312 C 20.773438 18.164062 20.898438 17.835938 20.898438 17.628906 C 20.898438 17.480469 20.878906 17.433594 20.773438 17.332031 C 20.703125 17.261719 20.585938 17.179688 20.519531 17.144531 C 20.28125 17.023438 19.746094 16.925781 19.101562 16.882812 C 18.136719 16.820312 17.949219 16.777344 17.761719 16.570312 C 17.625 16.421875 17.316406 16.351562 16.945312 16.390625 C 16.453125 16.4375 16.109375 16.570312 15.800781 16.84375 C 15.703125 16.929688 15.597656 17.003906 15.570312 17.003906 C 15.535156 17.003906 15.511719 16.929688 15.5 16.804688 C 15.488281 16.695312 15.449219 16.570312 15.410156 16.53125 C 15.332031 16.441406 15.039062 16.371094 14.746094 16.371094 C 14.011719 16.371094 12.816406 16.714844 12.632812 16.980469 C 12.445312 17.25 12.441406 17.25 12.214844 17.269531 C 11.859375 17.300781 11.875 17.222656 12.316406 16.792969 C 12.8125 16.3125 12.851562 16.148438 12.488281 16.050781 C 12.277344 15.996094 11.828125 16.058594 11.074219 16.25 C 10.277344 16.453125 9.613281 16.5625 9.023438 16.589844 C 8.117188 16.636719 7.988281 16.71875 7.320312 17.691406 C 7.097656 18.015625 6.914062 18.265625 6.914062 18.238281 C 6.914062 18.214844 6.960938 17.902344 7.015625 17.546875 C 7.136719 16.761719 7.128906 16.535156 6.96875 16.363281 C 6.851562 16.234375 6.117188 15.859375 5.839844 15.78125 C 5.605469 15.71875 5.492188 15.730469 5.335938 15.835938 C 5.09375 16.003906 4.964844 15.96875 4.617188 15.65625 C 4.351562 15.417969 4.054688 15.269531 3.738281 15.226562 C 3.429688 15.183594 3.328125 15.132812 3.296875 15.003906 C 3.261719 14.863281 3.167969 14.800781 2.910156 14.75 C 2.78125 14.722656 2.464844 14.605469 2.207031 14.492188 C 1.679688 14.253906 1.554688 14.222656 1.386719 14.28125 Z M 31.132812 18.808594 C 31.519531 19.285156 32.039062 20.683594 31.914062 20.917969 L 31.867188 21.003906 L 31.773438 20.914062 C 31.496094 20.652344 30.84375 18.980469 30.921875 18.734375 C 30.953125 18.632812 30.996094 18.648438 31.132812 18.808594 Z M 15.8125 24.816406 C 15.871094 24.941406 15.871094 24.964844 15.816406 25.0625 C 15.75 25.183594 15.648438 25.214844 15.566406 25.148438 C 15.5 25.089844 15.488281 24.785156 15.546875 24.667969 C 15.605469 24.566406 15.722656 24.628906 15.8125 24.816406 Z M 27.566406 26.382812 C 27.660156 26.664062 27.707031 27.503906 27.683594 28.460938 C 27.65625 29.652344 27.625 29.765625 27.429688 29.375 C 27.308594 29.128906 27.257812 28.65625 27.257812 27.816406 C 27.261719 26.554688 27.402344 25.890625 27.566406 26.382812 Z M 27.566406 26.382812 "/>
</g>
</svg>
