<svg width="42" height="42" viewBox="0 0 42 42" fill="none" xmlns="http://www.w3.org/2000/svg">
<g filter="url(#filter0_d_62_78)">
<path d="M14.4735 19.3678L14.8517 19.5954L14.8524 19.154L14.879 1.38738L35.7896 9.62999L35.76 29.4159L35.76 29.416L35.76 29.416L35.76 29.416L35.76 29.4161L35.76 29.4161L35.76 29.4161L35.76 29.4162L35.76 29.4162L35.76 29.4162L35.76 29.4162L35.76 29.4163L35.76 29.4163L35.76 29.4163L35.76 29.4164L35.76 29.4164L35.76 29.4164L35.76 29.4165L35.76 29.4165L35.76 29.4165L35.76 29.4166L35.76 29.4166L35.76 29.4166L35.76 29.4167L35.76 29.4167L35.76 29.4167L35.76 29.4167L35.76 29.4168L35.76 29.4168L35.76 29.4168L35.76 29.4169L35.76 29.4169L35.76 29.4169L35.76 29.417L35.76 29.417L35.76 29.417L35.76 29.4171L35.76 29.4171L35.76 29.4171L35.76 29.4172L35.76 29.4172L35.76 29.4172L35.76 29.4172L35.76 29.4173L35.76 29.4173L35.76 29.4173L35.76 29.4174L35.76 29.4174L35.76 29.4174L35.76 29.4175L35.76 29.4175L35.76 29.4175L35.76 29.4176L35.76 29.4176L35.76 29.4176L35.76 29.4177L35.76 29.4177L35.76 29.4177L35.76 29.4178L35.76 29.4178L35.76 29.4178L35.76 29.4179L35.76 29.4179L35.76 29.4179L35.76 29.418L35.76 29.418L35.76 29.418L35.76 29.4181L35.76 29.4181L35.76 29.4181L35.76 29.4182L35.76 29.4182L35.76 29.4182L35.76 29.4183L35.76 29.4183L35.76 29.4183L35.76 29.4183L35.76 29.4184L35.76 29.4184L35.76 29.4184L35.76 29.4185L35.76 29.4185L35.76 29.4185L35.76 29.4186L35.76 29.4186L35.76 29.4186L35.76 29.4187L35.76 29.4187L35.76 29.4187L35.76 29.4188L35.76 29.4188L35.76 29.4188L35.76 29.4189L35.76 29.4189L35.76 29.4189L35.76 29.419L35.76 29.419L35.76 29.419L35.76 29.4191L35.76 29.4191L35.76 29.4191L35.76 29.4192L35.76 29.4192L35.76 29.4192L35.76 29.4193L35.76 29.4193L35.76 29.4193L35.76 29.4194L35.76 29.4194L35.76 29.4194L35.76 29.4195L35.76 29.4195L35.76 29.4195L35.76 29.4196L35.76 29.4196L35.76 29.4196L35.76 29.4197L35.76 29.4197L35.76 29.4198L35.76 29.4198L35.76 29.4198L35.76 29.4199L35.76 29.4199L35.76 29.4199L35.76 29.42L35.76 29.42L35.76 29.42L35.76 29.4201L35.76 29.4201L35.76 29.4201L35.76 29.4202L35.76 29.4202L35.76 29.4202L35.76 29.4203L35.76 29.4203L35.76 29.4203L35.76 29.4204L35.76 29.4204L35.76 29.4204L35.76 29.4205L35.76 29.4205L35.76 29.4205L35.76 29.4206L35.76 29.4206L35.76 29.4206L35.76 29.4207L35.76 29.4207L35.76 29.4207L35.76 29.4208L35.76 29.4208L35.76 29.4208L35.76 29.4209L35.76 29.4209L35.76 29.4209L35.76 29.421L35.76 29.421L35.76 29.4211L35.76 29.4211L35.76 29.4211L35.76 29.4212L35.76 29.4212L35.76 29.4212L35.76 29.4213L35.76 29.4213L35.76 29.4213L35.76 29.4214L35.76 29.4214L35.76 29.4214L35.76 29.4215L35.76 29.4215L35.76 29.4215L35.76 29.4216L35.76 29.4216L35.76 29.4216L35.76 29.4217L35.76 29.4217L35.76 29.4217L35.76 29.4218L35.76 29.4218L35.76 29.4219L35.76 29.4219L35.76 29.4219L35.76 29.422L35.76 29.422L35.76 29.422L35.76 29.4221L35.76 29.4221L35.76 29.4221L35.76 29.4222L35.76 29.4222L35.76 29.4222L35.76 29.4223L35.76 29.4223L35.76 29.4223L35.76 29.4224L35.76 29.4224L35.76 29.4224L35.76 29.4225L35.76 29.4225L35.76 29.4226L35.76 29.4226L35.76 29.4226L35.76 29.4227L35.76 29.4227L35.76 29.4227L35.76 29.4228L35.76 29.4228L35.76 29.4228L35.76 29.4229L35.76 29.4229L35.76 29.4229L35.76 29.423L35.76 29.423L35.76 29.423L35.76 29.4231L35.76 29.4231L35.76 29.4231L35.76 29.4232L35.76 29.4232L35.76 29.4233L35.76 29.4233L35.76 29.4233L35.76 29.4234L35.76 29.4234L35.76 29.4234L35.76 29.4235L35.76 29.4235L35.76 29.4235L35.76 29.4236L35.76 29.4236L35.76 29.4236L35.76 29.4237L35.76 29.4237L35.76 29.4237L35.76 29.4238L35.76 29.4238L35.76 29.4239L35.76 29.4239L35.76 29.4239L35.76 29.424L35.76 29.424L35.76 29.424L35.76 29.4241L35.76 29.4241L35.76 29.4241L35.76 29.4242L35.76 29.4242L35.76 29.4242L35.76 29.4243L35.76 29.4243L35.76 29.4243L35.76 29.4244L35.76 29.4244L35.76 29.4245L35.76 29.4245L35.76 29.4245L35.76 29.4246L35.76 29.4246L35.76 29.4246L35.76 29.4247L35.76 29.4247L35.76 29.4247L35.76 29.4248L35.76 29.4248L35.76 29.4248L35.76 29.4249L35.76 29.4249L35.76 29.4249L35.76 29.425L35.76 29.425L35.76 29.4251L35.76 29.4251L35.76 29.4251L35.76 29.4252L35.76 29.4252L35.76 29.4252L35.76 29.4253L35.76 29.4253L35.76 29.4253L35.76 29.4254L35.76 29.4254L35.76 29.4254L35.76 29.4255L35.76 29.4255L35.76 29.4255L35.76 29.4256L35.76 29.4256L35.76 29.4257L35.76 29.4257L35.76 29.4257L35.76 29.4258L35.76 29.4258L35.76 29.4258L35.76 29.4259L35.76 29.4259L35.76 29.4259L35.76 29.426L35.76 29.426L35.76 29.426L35.76 29.4261L35.76 29.4261L35.76 29.4261L35.76 29.4262L35.76 29.4262L35.76 29.4263L35.76 29.4263L35.76 29.4263L35.76 29.4264L35.76 29.4264L35.76 29.4264L35.76 29.4265L35.76 29.4265L35.76 29.4265L35.76 29.4266L35.76 29.4266L35.76 29.4266L35.76 29.4267L35.76 29.4267L35.76 29.4267L35.76 29.4268L35.76 29.4268L35.76 29.4269L35.76 29.4269L35.76 29.4269L35.76 29.427L35.76 29.427L35.76 29.427L35.76 29.4271L35.76 29.4271L35.76 29.4271L35.76 29.4272L35.76 29.4272L35.76 29.4272L35.76 29.4273L35.76 29.4273L35.76 29.4273L35.76 29.4274L35.76 29.4274L35.76 29.4274L35.76 29.4275L35.76 29.4275L35.76 29.4275L35.76 29.4276L35.76 29.4276L35.76 29.4277L35.76 29.4277L35.76 29.4277L35.76 29.4278L35.76 29.4278L35.76 29.4278L35.76 29.4279L35.76 29.4279L35.76 29.4279L35.76 29.428L35.76 29.428L35.76 29.428L35.76 29.4281L35.76 29.4281L35.76 29.4281L35.76 29.4282L35.76 29.4282L35.76 29.4282L35.76 29.4283L35.76 29.4283L35.76 29.4283L35.76 29.4284L35.76 29.4284L35.76 29.4284L35.76 29.4285L35.76 29.4285L35.76 29.4286L35.76 29.4286L35.76 29.4286L35.76 29.4287L35.76 29.4287L35.76 29.4287L35.76 29.4288L35.76 29.4288L35.76 29.4288L35.76 29.4289L35.76 29.4289L35.76 29.4289L35.76 29.429L35.76 29.429L35.76 29.429L35.76 29.4291L35.76 29.4291L35.76 29.4291L35.76 29.4292L35.76 29.4292L35.76 29.4292L35.76 29.4293L35.76 29.4293L35.76 29.4293L35.76 29.4294L35.76 29.4294L35.76 29.4294L35.76 29.4295L35.76 29.4295L35.76 29.4295L35.76 29.4296L35.76 29.4296L35.76 29.4296L35.76 29.4297L35.76 29.4297L35.76 29.4297L35.76 29.4298L35.76 29.4298L35.76 29.4298L35.76 29.4299L35.76 29.4299L35.76 29.4299L35.76 29.43L35.76 29.43L35.76 29.43L35.76 29.4301L35.76 29.4301L35.76 29.4301L35.76 29.4302L35.76 29.4302L35.76 29.4302L35.76 29.4303L35.76 29.4303L35.76 29.4303L35.76 29.4304L35.76 29.4304L35.76 29.4304L35.76 29.4305L35.76 29.4305L35.76 29.4305L35.76 29.4306L35.76 29.4306L35.76 29.4306L35.76 29.4307L35.76 29.4307L35.76 29.4307L35.76 29.4308L35.76 29.4308L35.76 29.4308L35.76 29.4309L35.76 29.4309L35.76 29.4309L35.76 29.431L35.76 29.431L35.76 29.431L35.76 29.4311L35.76 29.4311L35.76 29.4311L35.76 29.4312L35.76 29.4312L35.76 29.4312L35.76 29.4313L35.76 29.4313L35.76 29.4313L35.76 29.4314L35.76 29.4314L35.76 29.4314L35.76 29.4315L35.76 29.4315L35.76 29.4315L35.76 29.4316L35.76 29.4316L35.76 29.4316L35.76 29.4316L35.76 29.4317L35.76 29.4317L35.76 29.4317L35.76 29.4318L35.76 29.4318L35.76 29.4318L35.76 29.4319L35.76 29.4319L35.76 29.4319L35.76 29.432L35.76 29.432L35.76 29.432L35.76 29.4321L35.76 29.4321L35.76 29.4321L35.76 29.4322L35.76 29.4322L35.76 29.4322L35.76 29.4323L35.76 29.4323L35.76 29.4323L35.76 29.4323L35.76 29.4324L35.76 29.4324L35.76 29.4324L35.76 29.4325L35.76 29.4325L35.76 29.4325L35.76 29.4326L35.76 29.4326L35.76 29.4326L35.76 29.4327L35.76 29.4327L35.76 29.4327L35.76 29.4327L35.76 29.4328L35.76 29.4328L35.76 29.4328L35.76 29.4329L35.76 29.4329L35.76 29.4329L35.76 29.433L35.76 29.433L35.76 29.433L35.76 29.4331L35.76 29.4331L35.76 29.4331L35.76 29.4331L35.76 29.4332L35.7599 29.4391C35.7442 31.0773 34.7799 32.7997 32.8854 34.0851C31.19 35.2308 29.0876 35.8 27.0598 35.7881C25.0303 35.7762 23.0984 35.1828 21.7318 34.0319L21.7316 34.0317C20.3709 32.8883 19.826 31.4119 20.0216 29.9477C20.2179 28.4774 21.1663 26.9848 22.8613 25.8384C25.9164 23.7748 30.2593 23.5997 33.1056 25.2598L33.4809 25.4787L33.4816 25.0442L33.4977 14.2346L33.498 14.058L33.3317 13.9987L17.4003 8.32271L17.0669 8.20394L17.0664 8.55784L17.0441 23.4729C17.0441 23.4731 17.0441 23.4732 17.0441 23.4734C17.0349 25.1202 16.0752 26.8507 14.1632 28.1409L14.1628 28.1412C12.4708 29.2877 10.3701 29.8571 8.34268 29.8454C6.31378 29.8337 4.38129 29.2408 3.01347 28.0914C1.65286 26.9472 1.10957 25.4701 1.30622 24.0051C1.50369 22.534 2.45274 21.0408 4.14564 19.8944C7.22759 17.8091 11.6236 17.653 14.4735 19.3678Z" fill="#2818E1" stroke="black" stroke-width="0.5"/>
</g>
<defs>
<filter id="filter0_d_62_78" x="0.0170898" y="0.0203857" width="41.0227" height="41.0179" filterUnits="userSpaceOnUse" color-interpolation-filters="sRGB">
<feFlood flood-opacity="0" result="BackgroundImageFix"/>
<feColorMatrix in="SourceAlpha" type="matrix" values="0 0 0 0 0 0 0 0 0 0 0 0 0 0 0 0 0 0 127 0" result="hardAlpha"/>
<feOffset dx="2" dy="2"/>
<feGaussianBlur stdDeviation="1.5"/>
<feComposite in2="hardAlpha" operator="out"/>
<feColorMatrix type="matrix" values="0 0 0 0 0 0 0 0 0 0 0 0 0 0 0 0 0 0 0.25 0"/>
<feBlend mode="normal" in2="BackgroundImageFix" result="effect1_dropShadow_62_78"/>
<feBlend mode="normal" in="SourceGraphic" in2="effect1_dropShadow_62_78" result="shape"/>
</filter>
</defs>
</svg>
