<?xml version="1.0" encoding="UTF-8"?>
<svg xmlns="http://www.w3.org/2000/svg" xmlns:xlink="http://www.w3.org/1999/xlink" width="50px" height="50px" viewBox="0 0 50 86" version="1.1">
<g id="surface1">
<path style=" stroke:none;fill-rule:nonzero;fill:rgb(92.156863%,44.705882%,18.039216%);fill-opacity:1;" d="M 25.03125 44.386719 C 37.351562 44.382812 47.328125 34.441406 47.324219 22.191406 C 47.320312 9.9375 37.332031 0.0078125 25.015625 0.0117188 C 12.699219 0.015625 2.71875 9.957031 2.722656 22.207031 C 2.738281 34.453125 12.71875 44.378906 25.03125 44.386719 M 25.03125 13.019531 C 30.132812 13.019531 34.269531 17.136719 34.269531 22.210938 C 34.269531 27.289062 30.132812 31.398438 25.03125 31.398438 C 19.929688 31.398438 15.792969 27.285156 15.792969 22.207031 C 15.800781 17.136719 19.933594 13.023438 25.03125 13.019531 Z M 34.046875 62.488281 C 38.636719 61.453125 43.019531 59.644531 47.003906 57.152344 C 50.039062 55.203125 50.914062 51.175781 48.953125 48.15625 C 47.027344 45.183594 43.0625 44.285156 40.035156 46.140625 C 30.851562 51.855469 19.191406 51.855469 10.007812 46.140625 C 6.957031 44.238281 2.933594 45.148438 1.011719 48.175781 C -0.914062 51.210938 -0.0078125 55.226562 3.042969 57.144531 C 3.046875 57.144531 3.050781 57.148438 3.050781 57.148438 C 7.035156 59.636719 11.414062 61.445312 16 62.484375 L 3.527344 74.890625 C 1.046875 77.5 1.160156 81.617188 3.789062 84.089844 C 6.3125 86.460938 10.253906 86.460938 12.777344 84.089844 L 25.023438 71.898438 L 37.28125 84.089844 C 39.832031 86.625 43.960938 86.625 46.511719 84.089844 C 49.058594 81.550781 49.058594 77.445312 46.511719 74.90625 Z M 34.046875 62.488281 "/>
</g>
</svg>
