<svg width="45" height="47" viewBox="0 0 45 47" fill="none" xmlns="http://www.w3.org/2000/svg">
<path d="M33.3457 0.558472V28.8564H30.5532L24.5957 14.7074L30.5532 0.558472H33.3457Z" fill="#FFE777"/>
<path d="M30.5533 0.558472V28.8564L20.5 25.8776L10.4468 28.8564H7.6543V0.558472H30.5533Z" fill="#FFF1B1"/>
<path d="M20.6013 18.804L28.3192 28.8564H30.5532C30.5532 23.3383 26.1075 18.8583 20.6013 18.804Z" fill="#42C8C6"/>
<path d="M20.5 5.02661V16.5692C23.6873 16.5692 26.2713 13.9851 26.2713 10.7979C26.2713 7.6106 23.6873 5.02661 20.5 5.02661Z" fill="#FFC1A6"/>
<path d="M20.6013 18.804C24.8728 18.874 28.3191 23.3473 28.3191 28.8564H10.4468C10.4468 23.3041 14.9476 18.8032 20.5 18.8032C20.5335 18.8032 20.5677 18.8032 20.6013 18.804Z" fill="#81E3E2"/>
<path d="M20.5001 5.02661C22.4534 5.02661 24.0373 7.61066 24.0373 10.7979C24.0373 13.9852 22.4534 16.5692 20.5001 16.5692C17.3128 16.5692 14.7288 13.9851 14.7288 10.7979C14.7288 7.6106 17.3128 5.02661 20.5001 5.02661Z" fill="#FFDBCC"/>
<path d="M20.5 17.1277C23.9902 17.1277 26.8298 14.2882 26.8298 10.7979C26.8298 7.30758 23.9902 4.46814 20.5 4.46814C17.0097 4.46814 14.1702 7.30765 14.1702 10.7979C14.1702 14.2882 17.0097 17.1277 20.5 17.1277ZM20.5 5.58513C23.3743 5.58513 25.7127 7.92357 25.7127 10.7979C25.7127 13.6722 23.3743 16.0107 20.5 16.0107C17.6257 16.0107 15.2872 13.6723 15.2872 10.7979C15.2872 7.92364 17.6257 5.58513 20.5 5.58513Z" fill="black"/>
<path d="M20.5 13.0213C21.2316 13.0213 21.8906 12.5766 22.1398 11.9149C22.2484 11.6262 22.1024 11.3041 21.8138 11.1954C21.5255 11.0869 21.203 11.2327 21.0943 11.5214C21.0082 11.7504 20.7693 11.9044 20.5001 11.9044C20.2308 11.9044 19.992 11.7505 19.9058 11.5215C19.7972 11.2328 19.4752 11.0871 19.1864 11.1955C18.8977 11.3041 18.7517 11.6262 18.8604 11.9149C19.1093 12.5766 19.7682 13.0213 20.5 13.0213Z" fill="black"/>
<path d="M10.5723 27.1669C10.614 27.1763 10.6555 27.1809 10.6965 27.1809C10.9515 27.1809 11.1818 27.0051 11.2407 26.7459C12.2272 22.3981 16.0348 19.3617 20.5 19.3617C24.9651 19.3617 28.7727 22.3981 29.7593 26.7457C29.8276 27.0465 30.1268 27.2344 30.4277 27.1668C30.7284 27.0985 30.9169 26.7993 30.8487 26.4984C30.3249 24.1905 29.0171 22.0954 27.1662 20.5993C25.2876 19.0809 22.9202 18.2446 20.4999 18.2446C18.0796 18.2446 15.7123 19.0809 13.8336 20.5995C11.9827 22.0956 10.6749 24.1907 10.1511 26.4986C10.083 26.7995 10.2715 27.0986 10.5723 27.1669Z" fill="black"/>
<path d="M33.3457 0H7.6542C7.34569 0 7.0957 0.24999 7.0957 0.558496V28.8563C7.0957 29.1648 7.34569 29.4148 7.6542 29.4148H33.3457C33.6542 29.4148 33.9042 29.1648 33.9042 28.8563V0.558496C33.9042 0.24999 33.6542 0 33.3457 0ZM32.7872 28.2978H8.2127V1.11699H32.7871V28.2978H32.7872Z" fill="black"/>
<path d="M33.3457 31.0905H28.8776C28.5691 31.0905 28.3191 31.3404 28.3191 31.649C28.3191 31.9575 28.5691 32.2074 28.8776 32.2074H33.3457C33.6542 32.2074 33.9042 31.9575 33.9042 31.649C33.9042 31.3404 33.6542 31.0905 33.3457 31.0905Z" fill="black"/>
<path d="M26.6435 31.0905H7.6542C7.34569 31.0905 7.0957 31.3404 7.0957 31.649C7.0957 31.9575 7.34569 32.2074 7.6542 32.2074H26.6435C26.9521 32.2074 27.202 31.9575 27.202 31.649C27.2021 31.3404 26.9521 31.0905 26.6435 31.0905Z" fill="black"/>
<path d="M20.5 33.8831H7.6542C7.34569 33.8831 7.0957 34.133 7.0957 34.4416C7.0957 34.7501 7.34569 35 7.6542 35H20.5C20.8085 35 21.0584 34.7501 21.0584 34.4416C21.0584 34.133 20.8085 33.8831 20.5 33.8831Z" fill="black"/>
<path d="M36.6376 28.8718L43.0407 29.7644C42.5944 30.0819 42.4104 30.387 42.3547 30.6939C42.3272 30.8457 42.3347 30.996 42.3399 31.0995C42.3411 31.1246 42.3423 31.147 42.3427 31.1659C42.3453 31.2737 42.3328 31.3072 42.3109 31.3336L36.8214 37.3332L36.8214 37.3331L36.8165 37.3388C36.5279 37.6742 35.9644 37.9458 35.3643 37.9915L26.9933 38.6289L18.8214 38.2093L18.7955 38.208L18.77 38.2119L9.52958 39.6522L2.76986 40.4735C2.39181 40.5013 2.03719 40.4304 1.77955 40.2958C1.53315 40.167 1.40097 39.9967 1.37347 39.8153L2.27636 34.377L2.28647 34.316L2.26683 34.2571L0.342238 28.4791C0.339476 28.3261 0.434677 28.1366 0.661273 27.9605C0.892157 27.781 1.22543 27.6461 1.59425 27.6158L10.785 27.7746L10.8011 27.7749L10.8171 27.7731L17.7782 26.9973L17.7787 26.9973L34.199 25.133C34.7618 25.0912 35.3282 25.2499 35.6801 25.507L36.4251 28.6781L36.4649 28.8477L36.6376 28.8718Z" fill="#ED1313" stroke="#00AC26" stroke-width="0.5"/>
<g filter="url(#filter0_d_377_943)">
<path d="M30.833 27.5681C30.0797 27.7621 29.5128 28.3159 29.266 29.0004C28.7193 28.5203 27.9554 28.3095 27.2021 28.5035C25.9868 28.8167 25.2564 30.0659 25.5721 31.2912C26.2694 33.9976 30.9137 35.3955 30.9137 35.3955C30.9137 35.3955 34.3045 31.9274 33.6071 29.221C33.2914 27.9956 32.0483 27.2549 30.833 27.5681Z" fill="#F10808"/>
<path opacity="0.5" d="M31.7952 27.5308C33.4995 29.157 33.0445 31.9848 31.8971 33.0499C30.6311 34.2265 29.5277 34.1112 27.1364 33.4558C28.7331 34.7371 30.913 35.3931 30.913 35.3931C30.913 35.3931 34.3037 31.9249 33.6064 29.2186C33.3755 28.3223 32.646 27.6842 31.7952 27.5308Z" fill="#FF0000"/>
<path opacity="0.5" d="M30.833 27.5681C30.0797 27.7621 29.5128 28.3159 29.266 29.0004C28.7193 28.5203 27.9554 28.3095 27.2021 28.5035C25.9868 28.8167 25.2564 30.0659 25.5721 31.2912C26.2694 33.9976 30.9137 35.3955 30.9137 35.3955C30.9137 35.3955 34.3045 31.9274 33.6071 29.221C33.2914 27.9956 32.0483 27.2549 30.833 27.5681Z" fill="#DF1919"/>
<g opacity="0.5" filter="url(#filter1_d_377_943)">
<path d="M30.833 27.5681C30.0797 27.7621 29.5128 28.3159 29.266 29.0004C28.7193 28.5203 27.9554 28.3095 27.2021 28.5035C25.9868 28.8167 25.2564 30.0659 25.5721 31.2912C26.2694 33.9976 30.9137 35.3955 30.9137 35.3955C30.9137 35.3955 34.3045 31.9274 33.6071 29.221C33.2914 27.9956 32.0483 27.2549 30.833 27.5681Z" fill="#E22A18"/>
<path d="M30.833 27.5681C30.0797 27.7621 29.5128 28.3159 29.266 29.0004C28.7193 28.5203 27.9554 28.3095 27.2021 28.5035C25.9868 28.8167 25.2564 30.0659 25.5721 31.2912C26.2694 33.9976 30.9137 35.3955 30.9137 35.3955C30.9137 35.3955 34.3045 31.9274 33.6071 29.221C33.2914 27.9956 32.0483 27.2549 30.833 27.5681Z" stroke="black" stroke-width="2"/>
</g>
<path opacity="0.24" d="M28.6998 29.0788C29.0558 29.5459 28.7494 30.3835 28.014 30.9483C27.2785 31.513 26.3971 31.5943 26.0418 31.1297C25.6865 30.6651 25.9921 29.825 26.7276 29.2603C27.463 28.6955 28.3438 28.6117 28.6998 29.0788Z" fill="white" fill-opacity="0.3"/>
<path opacity="0.24" d="M31.282 27.96C31.6859 28.2285 31.6706 28.9695 31.2499 29.6124C30.8291 30.2554 30.1605 30.56 29.7566 30.2914C29.3527 30.0229 29.368 29.282 29.7887 28.639C30.2095 27.9961 30.8781 27.6915 31.282 27.96Z" fill="white" fill-opacity="0.3"/>
<path opacity="0.32" d="M31.0249 28.1476C32.2276 28.2427 33.7062 29.6165 32.4518 32.1266C31.701 33.6294 30.6957 34.5498 29.1516 34.6885C30.1261 35.1555 30.9161 35.3948 30.9161 35.3948C30.9161 35.3948 34.3068 31.9267 33.6095 29.2203C33.2912 27.9956 32.0481 27.2549 30.8328 27.568C30.0795 27.7621 29.5126 28.3159 29.2659 29.0004C29.2659 29.0004 30.1446 28.0774 31.0249 28.1476Z" fill="#AA120E"/>
</g>
<path d="M5.48966 32.1524L5.67441 33.505L8.34349 33.1999L8.45045 33.983L5.78136 34.2881L6.06335 36.3527L5.06244 36.4671L4.37207 31.4125L8.29229 30.9643L8.39924 31.7474L5.47994 32.0812L5.48966 32.1524Z" fill="white"/>
<path d="M14.4475 31.9959C14.5642 32.8502 14.2152 33.3962 13.4103 33.7051L15.2479 35.3749L13.9967 35.518L12.3454 33.9715L11.0109 34.124L11.2443 35.8326L10.2433 35.9471L9.55298 30.8925L11.7216 30.6445C12.6391 30.5396 13.3258 30.6057 13.6886 30.7812C14.1446 31.0183 14.3697 31.4263 14.4475 31.9959ZM13.2102 32.8604C13.3576 32.6989 13.4952 32.4663 13.4466 32.1103C13.398 31.7543 13.2854 31.5503 13.0157 31.4365C12.7461 31.3228 12.4027 31.2897 11.9023 31.3469L10.6511 31.4899L10.8942 33.2697L12.1453 33.1267C12.6555 33.1407 13.0628 33.0218 13.2102 32.8604Z" fill="white"/>
<path d="M19.8123 29.7196L19.9192 30.5027L16.7497 30.8651L16.9345 32.2177L19.7704 31.8935L19.8773 32.6766L17.0414 33.0008L17.2262 34.3535L20.4791 33.9816L20.5861 34.7647L16.3322 35.251L15.6418 30.1964L19.8123 29.7196Z" fill="white"/>
<path d="M25.4009 29.0807L25.5079 29.8638L22.3383 30.2262L22.5231 31.5788L25.359 31.2546L25.4659 32.0377L22.63 32.3619L22.8148 33.7146L26.0677 33.3427L26.1747 34.1258L21.9208 34.6121L21.2305 29.5575L25.4009 29.0807Z" fill="white"/>
<defs>
<filter id="filter0_d_377_943" x="23.4985" y="25.4958" width="16.2031" height="16.0317" filterUnits="userSpaceOnUse" color-interpolation-filters="sRGB">
<feFlood flood-opacity="0" result="BackgroundImageFix"/>
<feColorMatrix in="SourceAlpha" type="matrix" values="0 0 0 0 0 0 0 0 0 0 0 0 0 0 0 0 0 0 127 0" result="hardAlpha"/>
<feOffset dx="2" dy="2"/>
<feGaussianBlur stdDeviation="1.5"/>
<feComposite in2="hardAlpha" operator="out"/>
<feColorMatrix type="matrix" values="0 0 0 0 0 0 0 0 0 0 0 0 0 0 0 0 0 0 0.25 0"/>
<feBlend mode="normal" in2="BackgroundImageFix" result="effect1_dropShadow_377_943"/>
<feBlend mode="normal" in="SourceGraphic" in2="effect1_dropShadow_377_943" result="shape"/>
</filter>
<filter id="filter1_d_377_943" x="24.4985" y="26.4958" width="20.2031" height="20.0317" filterUnits="userSpaceOnUse" color-interpolation-filters="sRGB">
<feFlood flood-opacity="0" result="BackgroundImageFix"/>
<feColorMatrix in="SourceAlpha" type="matrix" values="0 0 0 0 0 0 0 0 0 0 0 0 0 0 0 0 0 0 127 0" result="hardAlpha"/>
<feOffset dx="5" dy="5"/>
<feGaussianBlur stdDeviation="2.5"/>
<feComposite in2="hardAlpha" operator="out"/>
<feColorMatrix type="matrix" values="0 0 0 0 0 0 0 0 0 0 0 0 0 0 0 0 0 0 0.25 0"/>
<feBlend mode="normal" in2="BackgroundImageFix" result="effect1_dropShadow_377_943"/>
<feBlend mode="normal" in="SourceGraphic" in2="effect1_dropShadow_377_943" result="shape"/>
</filter>
</defs>
</svg>
