<svg width="35" height="38" viewBox="0 0 35 38" fill="none" xmlns="http://www.w3.org/2000/svg">
<path d="M30.3457 0.558472V28.8564H27.5532L21.5957 14.7074L27.5532 0.558472H30.3457Z" fill="#FFE777"/>
<path d="M27.5533 0.558472V28.8564L17.5 25.8776L7.44685 28.8564H4.6543V0.558472H27.5533Z" fill="#FFF1B1"/>
<path d="M17.6013 18.804L25.3192 28.8564H27.5532C27.5532 23.3383 23.1075 18.8583 17.6013 18.804Z" fill="#42C8C6"/>
<path d="M17.5 5.02661V16.5692C20.6873 16.5692 23.2713 13.9851 23.2713 10.7979C23.2713 7.6106 20.6873 5.02661 17.5 5.02661Z" fill="#FFC1A6"/>
<path d="M17.6013 18.804C21.8728 18.874 25.3191 23.3473 25.3191 28.8564H7.44678C7.44678 23.3041 11.9476 18.8032 17.5 18.8032C17.5335 18.8032 17.5677 18.8032 17.6013 18.804Z" fill="#81E3E2"/>
<path d="M17.5001 5.02661C19.4534 5.02661 21.0373 7.61066 21.0373 10.7979C21.0373 13.9852 19.4534 16.5692 17.5001 16.5692C14.3128 16.5692 11.7288 13.9851 11.7288 10.7979C11.7288 7.6106 14.3128 5.02661 17.5001 5.02661Z" fill="#FFDBCC"/>
<path d="M17.5 17.1276C20.9902 17.1276 23.8298 14.2881 23.8298 10.7978C23.8298 7.30752 20.9902 4.46808 17.5 4.46808C14.0097 4.46808 11.1702 7.30759 11.1702 10.7979C11.1702 14.2882 14.0097 17.1276 17.5 17.1276ZM17.5 5.58507C20.3743 5.58507 22.7127 7.92351 22.7127 10.7978C22.7127 13.6721 20.3743 16.0106 17.5 16.0106C14.6257 16.0106 12.2872 13.6722 12.2872 10.7979C12.2872 7.92358 14.6257 5.58507 17.5 5.58507Z" fill="black"/>
<path d="M17.5 13.0213C18.2316 13.0213 18.8906 12.5766 19.1398 11.9149C19.2484 11.6262 19.1024 11.3041 18.8138 11.1954C18.5255 11.0869 18.203 11.2327 18.0943 11.5214C18.0082 11.7504 17.7693 11.9044 17.5001 11.9044C17.2308 11.9044 16.992 11.7505 16.9058 11.5215C16.7972 11.2328 16.4752 11.0871 16.1864 11.1955C15.8977 11.3041 15.7517 11.6262 15.8604 11.9149C16.1093 12.5766 16.7682 13.0213 17.5 13.0213Z" fill="black"/>
<path d="M7.57235 27.1669C7.61398 27.1763 7.65554 27.1809 7.69649 27.1809C7.95154 27.1809 8.18184 27.0051 8.2407 26.7459C9.22719 22.3981 13.0348 19.3617 17.5 19.3617C21.9651 19.3617 25.7727 22.3981 26.7593 26.7457C26.8276 27.0465 27.1268 27.2344 27.4277 27.1668C27.7284 27.0985 27.9169 26.7993 27.8487 26.4984C27.3249 24.1905 26.0171 22.0954 24.1662 20.5993C22.2876 19.0809 19.9202 18.2446 17.4999 18.2446C15.0796 18.2446 12.7123 19.0809 10.8336 20.5995C8.98267 22.0956 7.67489 24.1907 7.15112 26.4986C7.08303 26.7995 7.2715 27.0986 7.57235 27.1669Z" fill="black"/>
<path d="M30.3457 0H4.6542C4.34569 0 4.0957 0.24999 4.0957 0.558496V28.8563C4.0957 29.1648 4.34569 29.4148 4.6542 29.4148H30.3457C30.6542 29.4148 30.9042 29.1648 30.9042 28.8563V0.558496C30.9042 0.24999 30.6542 0 30.3457 0ZM29.7872 28.2978H5.2127V1.11699H29.7871V28.2978H29.7872Z" fill="black"/>
<path d="M30.3457 31.0905H25.8776C25.5691 31.0905 25.3191 31.3404 25.3191 31.649C25.3191 31.9575 25.5691 32.2074 25.8776 32.2074H30.3457C30.6542 32.2074 30.9042 31.9575 30.9042 31.649C30.9042 31.3404 30.6542 31.0905 30.3457 31.0905Z" fill="black"/>
<path d="M23.6435 31.0905H4.6542C4.34569 31.0905 4.0957 31.3404 4.0957 31.649C4.0957 31.9575 4.34569 32.2074 4.6542 32.2074H23.6435C23.9521 32.2074 24.202 31.9575 24.202 31.649C24.2021 31.3404 23.9521 31.0905 23.6435 31.0905Z" fill="black"/>
<path d="M17.5 33.883H4.6542C4.34569 33.883 4.0957 34.133 4.0957 34.4415C4.0957 34.75 4.34569 35 4.6542 35H17.5C17.8085 35 18.0584 34.75 18.0584 34.4415C18.0584 34.133 17.8085 33.883 17.5 33.883Z" fill="black"/>
<rect x="1" y="30" width="34" height="7" fill="black"/>
<path d="M4.17664 33.27H4.80664C5.15664 33.27 5.36664 33.06 5.36664 32.815C5.36664 32.57 5.15664 32.36 4.80664 32.36H4.17664V33.27ZM4.80664 34.53H4.17664V35.37C4.17664 35.79 3.89664 36.07 3.40664 36.07C2.91664 36.07 2.63664 35.79 2.63664 35.37V31.8C2.63664 31.38 2.91664 31.1 3.40664 31.1H4.80664C6.20664 31.1 6.97664 31.87 6.97664 32.815C6.97664 33.76 6.20664 34.53 4.80664 34.53ZM9.53219 34.25H9.11219V35.37C9.11219 35.79 8.83219 36.07 8.34219 36.07C7.85219 36.07 7.57219 35.79 7.57219 35.37V31.8C7.57219 31.38 7.85219 31.1 8.34219 31.1H9.81219C11.2822 31.1 11.9122 31.73 11.9122 32.675C11.9122 33.55 11.1422 33.83 11.1422 33.83V33.9L11.8422 34.74C11.8422 34.74 12.1222 35.09 12.1222 35.37C12.1222 35.79 11.8422 36.07 11.2822 36.07C10.9322 36.07 10.6522 35.72 10.6522 35.72L9.53219 34.25ZM9.11219 33.06H9.81219C10.1272 33.06 10.3022 32.885 10.3022 32.675C10.3022 32.465 10.1272 32.29 9.81219 32.29H9.11219V33.06ZM17.2005 33.06V34.04C17.2005 35.23 16.2905 36.14 14.8555 36.14C13.4205 36.14 12.5105 35.23 12.5105 34.04V33.06C12.5105 31.87 13.4205 30.96 14.8555 30.96C16.2905 30.96 17.2005 31.87 17.2005 33.06ZM15.6255 34.04V33.06C15.6255 32.5 15.2755 32.15 14.8555 32.15C14.4355 32.15 14.0855 32.5 14.0855 33.06V34.04C14.0855 34.6 14.4355 34.95 14.8555 34.95C15.2755 34.95 15.6255 34.6 15.6255 34.04ZM21.3655 32.5H19.4755V33.06H20.5255C21.0155 33.06 21.2955 33.34 21.2955 33.76C21.2955 34.18 21.0155 34.46 20.5255 34.46H19.4755V35.37C19.4755 35.79 19.1955 36.07 18.7055 36.07C18.2155 36.07 17.9355 35.79 17.9355 35.37V31.8C17.9355 31.38 18.2155 31.1 18.7055 31.1H21.3655C21.8555 31.1 22.1355 31.38 22.1355 31.8C22.1355 32.22 21.8555 32.5 21.3655 32.5ZM24.1307 31.73V35.37C24.1307 35.79 23.8507 36.07 23.3607 36.07C22.8707 36.07 22.5907 35.79 22.5907 35.37V31.73C22.5907 31.31 22.8707 31.03 23.3607 31.03C23.8507 31.03 24.1307 31.31 24.1307 31.73ZM26.578 34.6H28.258C28.748 34.6 29.028 34.88 29.028 35.3C29.028 35.72 28.748 36 28.258 36H25.808C25.318 36 25.038 35.72 25.038 35.3V31.73C25.038 31.31 25.318 31.03 25.808 31.03C26.298 31.03 26.578 31.31 26.578 31.73V34.6ZM32.9114 32.5H31.0214V32.92H32.3514C32.7714 32.92 33.0514 33.2 33.0514 33.55C33.0514 33.9 32.7714 34.18 32.3514 34.18H31.0214V34.6H32.9814C33.4714 34.6 33.7514 34.88 33.7514 35.3C33.7514 35.72 33.4714 36 32.9814 36H30.2514C29.7614 36 29.4814 35.72 29.4814 35.3V31.8C29.4814 31.38 29.7614 31.1 30.2514 31.1H32.9114C33.4014 31.1 33.6814 31.38 33.6814 31.8C33.6814 32.22 33.4014 32.5 32.9114 32.5Z" fill="white"/>
</svg>
