<?xml version="1.0" encoding="UTF-8"?>
<svg xmlns="http://www.w3.org/2000/svg" xmlns:xlink="http://www.w3.org/1999/xlink" width="50px" height="50px" viewBox="0 0 50 50" version="1.1">
<defs>
<linearGradient id="linear0" gradientUnits="userSpaceOnUse" x1="0" y1="64.1535" x2="128.3071" y2="64.1535" gradientTransform="matrix(0.389712,0,0,0.389712,0,0)">
<stop offset="0" style="stop-color:rgb(16.470588%,67.058824%,93.333333%);stop-opacity:1;"/>
<stop offset="1" style="stop-color:rgb(13.333333%,61.960784%,85.098039%);stop-opacity:1;"/>
</linearGradient>
</defs>
<g id="surface1">
<path style=" stroke:none;fill-rule:evenodd;fill:url(#linear0);" d="M 50.039062 25.019531 C 50.039062 38.835938 38.835938 50.039062 25.019531 50.039062 C 11.203125 50.039062 0 38.835938 0 25.019531 C 0 11.203125 11.203125 0 25.019531 0 C 38.835938 0 50.039062 11.203125 50.039062 25.019531 Z M 50.039062 25.019531 "/>
<path style=" stroke:none;fill-rule:evenodd;fill:rgb(100%,100%,100%);fill-opacity:1;" d="M 11.300781 24.746094 C 18.589844 21.550781 23.460938 19.484375 25.914062 18.472656 C 32.851562 15.589844 34.292969 15.082031 35.230469 15.042969 C 35.425781 15.042969 35.890625 15.082031 36.203125 15.316406 C 36.4375 15.511719 36.515625 15.785156 36.554688 15.976562 C 36.59375 16.171875 36.632812 16.601562 36.59375 16.953125 C 36.203125 20.886719 34.605469 30.515625 33.75 34.917969 C 33.398438 36.789062 32.695312 37.414062 32.035156 37.492188 C 30.59375 37.605469 29.460938 36.515625 28.058594 35.621094 C 25.875 34.175781 24.628906 33.28125 22.488281 31.878906 C 20.03125 30.242188 21.628906 29.34375 23.03125 27.902344 C 23.382812 27.511719 29.8125 21.707031 29.929688 21.160156 C 29.929688 21.082031 29.96875 20.847656 29.8125 20.734375 C 29.65625 20.617188 29.460938 20.65625 29.304688 20.695312 C 29.074219 20.734375 25.566406 23.070312 18.746094 27.667969 C 17.730469 28.371094 16.835938 28.683594 16.015625 28.683594 C 15.121094 28.683594 13.40625 28.175781 12.121094 27.746094 C 10.5625 27.242188 9.3125 26.96875 9.429688 26.109375 C 9.507812 25.683594 10.132812 25.214844 11.300781 24.746094 Z M 11.300781 24.746094 "/>
</g>
</svg>
