<?xml version="1.0" encoding="UTF-8"?>
<svg xmlns="http://www.w3.org/2000/svg" xmlns:xlink="http://www.w3.org/1999/xlink" width="50px" height="50px" viewBox="0 0 50 49" version="1.1">
<defs>
<clipPath id="clip1">
  <path d="M 0.246094 0 L 49.753906 0 L 49.753906 49 L 0.246094 49 Z M 0.246094 0 "/>
</clipPath>
</defs>
<g id="surface1">
<g clip-path="url(#clip1)" clip-rule="nonzero">
<path style=" stroke:none;fill-rule:nonzero;fill:rgb(0%,46.666667%,100%);fill-opacity:1;" d="M 0.246094 23.519531 C 0.246094 12.433594 0.246094 6.890625 3.726562 3.445312 C 7.207031 0 12.808594 0 24.011719 0 L 25.988281 0 C 37.191406 0 42.792969 0 46.273438 3.445312 C 49.753906 6.890625 49.753906 12.433594 49.753906 23.519531 L 49.753906 25.480469 C 49.753906 36.566406 49.753906 42.109375 46.273438 45.554688 C 42.792969 49 37.191406 49 25.988281 49 L 24.011719 49 C 12.808594 49 7.207031 49 3.726562 45.554688 C 0.246094 42.109375 0.246094 36.566406 0.246094 25.480469 Z M 0.246094 23.519531 "/>
</g>
<path style=" stroke:none;fill-rule:nonzero;fill:rgb(100%,100%,100%);fill-opacity:1;" d="M 26.589844 35.300781 C 15.304688 35.300781 8.871094 27.644531 8.601562 14.90625 L 14.253906 14.90625 C 14.4375 24.253906 18.605469 28.214844 21.90625 29.03125 L 21.90625 14.90625 L 27.226562 14.90625 L 27.226562 22.96875 C 30.488281 22.621094 33.910156 18.945312 35.066406 14.90625 L 40.386719 14.90625 C 39.5 19.886719 35.789062 23.5625 33.148438 25.070312 C 35.789062 26.296875 40.015625 29.503906 41.625 35.300781 L 35.765625 35.300781 C 34.507812 31.421875 31.375 28.421875 27.226562 28.011719 L 27.226562 35.300781 Z M 26.589844 35.300781 "/>
</g>
</svg>
